<svg width="360" height="439" viewBox="0 0 360 439" fill="none" xmlns="http://www.w3.org/2000/svg">
<g clip-path="url(#clip0_4418_1547)">
<rect x="1.91893e-05" width="360" height="439" rx="16" fill="#F8FBFB"/>
<rect x="1.91893e-05" width="360" height="439" rx="16" fill="url(#paint0_linear_4418_1547)" fill-opacity="0.3"/>
<g filter="url(#filter0_dddd_4418_1547)">
<rect x="110" y="58" width="140" height="140" rx="12" fill="white"/>
</g>
<rect x="172" y="92" width="27" height="6" rx="3" fill="#EAEAEA"/>
<rect x="172" y="81" width="19" height="6" rx="3" fill="#B4DAD4"/>
<rect x="123" y="116" width="116" height="6" rx="3" fill="#EAEAEA"/>
<rect x="123" y="126" width="116" height="6" rx="3" fill="#EAEAEA"/>
<rect x="123" y="136" width="98" height="6" rx="3" fill="#EAEAEA"/>
<rect x="123" y="153" width="23" height="6" rx="3" fill="#EAEAEA"/>
<rect x="150" y="153" width="23" height="6" rx="3" fill="#EAEAEA"/>
<rect x="177" y="153" width="23" height="6" rx="3" fill="#EAEAEA"/>
<rect x="123" y="163" width="77" height="6" rx="3" fill="#EAEAEA"/>
<path d="M141 107C150.941 107 159 98.9411 159 89C159 79.0589 150.941 71 141 71C131.059 71 123 79.0589 123 89C123 98.9411 131.059 107 141 107Z" fill="#0F8A75"/>
<path d="M146.071 83.1234C146.071 85.9086 143.813 88.9154 141.027 88.9154C138.242 88.9154 135.984 85.9086 135.984 83.1234C135.984 80.3382 138.242 78.3623 141.027 78.3623C143.813 78.3623 146.071 80.3382 146.071 83.1234Z" fill="url(#paint1_linear_4418_1547)"/>
<path d="M134.77 99.6386H147.081C148.377 99.6386 149.525 98.8011 149.919 97.5667L150.582 95.4963C151.067 93.9803 150.278 92.3389 148.783 91.7923C143.773 89.9604 138.593 90.1955 133.286 91.9614C131.799 92.4561 130.974 94.0463 131.384 95.5585L131.894 97.4388C132.247 98.7372 133.425 99.6386 134.77 99.6386Z" fill="url(#paint2_linear_4418_1547)"/>
<path d="M25.1192 261.76V282.6H42.9192V288H19.1192V261.76H25.1192Z" fill="#0F8A75"/>
<path d="M67.4332 279.68H49.5932C49.7799 280.933 50.3932 281.893 51.4332 282.56C52.4732 283.227 53.8732 283.56 55.6332 283.56C57.2332 283.56 58.5399 283.347 59.5532 282.92C60.5666 282.493 61.1532 281.907 61.3132 281.16H67.3932C67.0999 283.507 65.9266 285.32 63.8732 286.6C61.8466 287.853 59.0999 288.48 55.6332 288.48C53.1799 288.48 51.0466 288.08 49.2332 287.28C47.4199 286.453 46.0332 285.28 45.0732 283.76C44.1132 282.24 43.6332 280.453 43.6332 278.4V277.64C43.6332 275.56 44.1132 273.76 45.0732 272.24C46.0599 270.693 47.4466 269.52 49.2332 268.72C51.0466 267.893 53.1799 267.48 55.6332 267.48C59.3666 267.48 62.2599 268.373 64.3132 270.16C66.3932 271.92 67.4332 274.4 67.4332 277.6V279.68ZM55.5932 272.32C54.0466 272.32 52.7666 272.6 51.7532 273.16C50.7399 273.72 50.0732 274.507 49.7532 275.52H61.3132C60.9932 274.507 60.3399 273.72 59.3532 273.16C58.3666 272.6 57.1132 272.32 55.5932 272.32Z" fill="#0F8A75"/>
<path d="M96.5092 282.92V288H93.1092C91.8825 288 90.8158 287.8 89.9092 287.4C89.0292 286.973 88.3625 286.373 87.9092 285.6C85.8825 287.52 83.0025 288.48 79.2692 288.48C76.4425 288.48 74.2425 287.947 72.6692 286.88C71.0958 285.813 70.3092 284.32 70.3092 282.4C70.3092 280.773 70.8958 279.48 72.0692 278.52C73.2425 277.533 74.9492 276.92 77.1892 276.68L87.0692 275.6C86.7492 273.627 84.9625 272.64 81.7092 272.64C80.0025 272.64 78.6692 272.88 77.7092 273.36C76.7758 273.813 76.3092 274.453 76.3092 275.28V275.4H70.4692V275.28C70.4692 273.707 70.9225 272.333 71.8292 271.16C72.7625 269.987 74.0825 269.08 75.7892 268.44C77.4958 267.8 79.4825 267.48 81.7492 267.48C85.2692 267.48 88.0025 268.267 89.9492 269.84C91.9225 271.413 92.9092 273.587 92.9092 276.36V281.32C92.9092 282.387 93.5225 282.92 94.7492 282.92H96.5092ZM79.6692 283.84C81.3758 283.84 82.8825 283.587 84.1892 283.08C85.5225 282.547 86.4958 281.84 87.1092 280.96V279.6L78.7092 280.56C77.8292 280.667 77.1758 280.853 76.7492 281.12C76.3225 281.387 76.1092 281.76 76.1092 282.24C76.1092 283.307 77.2958 283.84 79.6692 283.84Z" fill="#0F8A75"/>
<path d="M121.462 260.16V288H116.062L115.902 286.28C114.062 287.747 111.729 288.48 108.902 288.48C106.582 288.48 104.569 288.067 102.862 287.24C101.155 286.387 99.8353 285.187 98.902 283.64C97.9686 282.067 97.502 280.24 97.502 278.16V277.76C97.502 275.68 97.9553 273.867 98.862 272.32C99.7953 270.773 101.115 269.587 102.822 268.76C104.555 267.907 106.582 267.48 108.902 267.48C111.542 267.48 113.795 268.16 115.662 269.52V260.16H121.462ZM109.742 283.2C110.995 283.2 112.142 283 113.182 282.6C114.222 282.173 115.049 281.613 115.662 280.92V275C115.075 274.307 114.249 273.76 113.182 273.36C112.142 272.96 110.995 272.76 109.742 272.76C107.769 272.76 106.235 273.2 105.142 274.08C104.049 274.96 103.502 276.187 103.502 277.76V278.16C103.502 279.76 104.049 281 105.142 281.88C106.235 282.76 107.769 283.2 109.742 283.2Z" fill="#0F8A75"/>
<path d="M156.556 288.48C153.383 288.48 150.596 287.933 148.196 286.84C145.796 285.747 143.943 284.2 142.636 282.2C141.356 280.173 140.716 277.813 140.716 275.12V274.68C140.716 271.987 141.356 269.64 142.636 267.64C143.943 265.613 145.796 264.053 148.196 262.96C150.596 261.84 153.383 261.28 156.556 261.28C159.489 261.28 162.116 261.76 164.436 262.72C166.783 263.68 168.609 265.013 169.916 266.72C171.249 268.427 171.916 270.347 171.916 272.48V272.8H165.796V272.48C165.796 271.387 165.396 270.413 164.596 269.56C163.823 268.707 162.729 268.04 161.316 267.56C159.929 267.08 158.329 266.84 156.516 266.84C153.343 266.84 150.929 267.507 149.276 268.84C147.649 270.173 146.836 272.093 146.836 274.6V275.2C146.836 277.733 147.649 279.653 149.276 280.96C150.903 282.267 153.329 282.92 156.556 282.92C159.356 282.92 161.596 282.413 163.276 281.4C164.956 280.36 165.796 279 165.796 277.32V277.04H171.916V277.32C171.916 279.453 171.249 281.373 169.916 283.08C168.609 284.76 166.783 286.08 164.436 287.04C162.116 288 159.489 288.48 156.556 288.48Z" fill="#0F8A75"/>
<path d="M191.317 267.96V273.08H186.837C184.33 273.08 182.57 273.707 181.557 274.96V288H175.797V267.96H181.197L181.357 269.8C183.037 268.573 185.117 267.96 187.597 267.96H191.317Z" fill="#0F8A75"/>
<path d="M215.641 279.68H197.801C197.988 280.933 198.601 281.893 199.641 282.56C200.681 283.227 202.081 283.56 203.841 283.56C205.441 283.56 206.748 283.347 207.761 282.92C208.774 282.493 209.361 281.907 209.521 281.16H215.601C215.308 283.507 214.134 285.32 212.081 286.6C210.054 287.853 207.308 288.48 203.841 288.48C201.388 288.48 199.254 288.08 197.441 287.28C195.628 286.453 194.241 285.28 193.281 283.76C192.321 282.24 191.841 280.453 191.841 278.4V277.64C191.841 275.56 192.321 273.76 193.281 272.24C194.268 270.693 195.654 269.52 197.441 268.72C199.254 267.893 201.388 267.48 203.841 267.48C207.574 267.48 210.468 268.373 212.521 270.16C214.601 271.92 215.641 274.4 215.641 277.6V279.68ZM203.801 272.32C202.254 272.32 200.974 272.6 199.961 273.16C198.948 273.72 198.281 274.507 197.961 275.52H209.521C209.201 274.507 208.548 273.72 207.561 273.16C206.574 272.6 205.321 272.32 203.801 272.32Z" fill="#0F8A75"/>
<path d="M244.717 282.92V288H241.317C240.09 288 239.024 287.8 238.117 287.4C237.237 286.973 236.57 286.373 236.117 285.6C234.09 287.52 231.21 288.48 227.477 288.48C224.65 288.48 222.45 287.947 220.877 286.88C219.304 285.813 218.517 284.32 218.517 282.4C218.517 280.773 219.104 279.48 220.277 278.52C221.45 277.533 223.157 276.92 225.397 276.68L235.277 275.6C234.957 273.627 233.17 272.64 229.917 272.64C228.21 272.64 226.877 272.88 225.917 273.36C224.984 273.813 224.517 274.453 224.517 275.28V275.4H218.677V275.28C218.677 273.707 219.13 272.333 220.037 271.16C220.97 269.987 222.29 269.08 223.997 268.44C225.704 267.8 227.69 267.48 229.957 267.48C233.477 267.48 236.21 268.267 238.157 269.84C240.13 271.413 241.117 273.587 241.117 276.36V281.32C241.117 282.387 241.73 282.92 242.957 282.92H244.717ZM227.877 283.84C229.584 283.84 231.09 283.587 232.397 283.08C233.73 282.547 234.704 281.84 235.317 280.96V279.6L226.917 280.56C226.037 280.667 225.384 280.853 224.957 281.12C224.53 281.387 224.317 281.76 224.317 282.24C224.317 283.307 225.504 283.84 227.877 283.84Z" fill="#0F8A75"/>
<path d="M254.787 273.08V280.68C254.787 281.4 254.987 281.96 255.387 282.36C255.814 282.733 256.414 282.92 257.187 282.92H261.907V288H256.427C254.134 288 252.321 287.387 250.987 286.16C249.654 284.907 248.987 283.213 248.987 281.08V273.08H242.307V267.96H247.667C248.227 267.96 248.614 267.853 248.827 267.64C249.041 267.427 249.147 267.04 249.147 266.48V262.64H254.787V267.96H263.107V273.08H254.787Z" fill="#0F8A75"/>
<path d="M271.209 267.96V288H265.449V267.96H271.209ZM268.329 265.64C267.262 265.64 266.395 265.333 265.729 264.72C265.062 264.08 264.729 263.253 264.729 262.24C264.729 261.227 265.062 260.413 265.729 259.8C266.395 259.16 267.262 258.84 268.329 258.84C269.422 258.84 270.289 259.16 270.929 259.8C271.595 260.413 271.929 261.227 271.929 262.24C271.929 263.253 271.595 264.08 270.929 264.72C270.262 265.333 269.395 265.64 268.329 265.64Z" fill="#0F8A75"/>
<path d="M287.014 288.48C284.507 288.48 282.334 288.08 280.494 287.28C278.654 286.453 277.241 285.28 276.254 283.76C275.267 282.213 274.774 280.4 274.774 278.32V277.8C274.774 275.667 275.254 273.827 276.214 272.28C277.201 270.733 278.614 269.547 280.454 268.72C282.294 267.893 284.481 267.48 287.014 267.48C289.521 267.48 291.681 267.893 293.494 268.72C295.307 269.547 296.694 270.733 297.654 272.28C298.641 273.827 299.134 275.667 299.134 277.8V278.32C299.134 280.4 298.641 282.213 297.654 283.76C296.694 285.28 295.307 286.453 293.494 287.28C291.681 288.08 289.521 288.48 287.014 288.48ZM286.974 283.2C288.921 283.2 290.427 282.773 291.494 281.92C292.587 281.067 293.134 279.853 293.134 278.28V277.84C293.134 276.213 292.601 274.96 291.534 274.08C290.467 273.2 288.947 272.76 286.974 272.76C284.974 272.76 283.441 273.2 282.374 274.08C281.307 274.933 280.774 276.187 280.774 277.84V278.28C280.774 279.853 281.307 281.067 282.374 281.92C283.467 282.773 285.001 283.2 286.974 283.2Z" fill="#0F8A75"/>
<path d="M315.077 267.48C318.543 267.48 321.17 268.373 322.957 270.16C324.743 271.947 325.637 274.6 325.637 278.12V288H319.837V278.12C319.837 276.387 319.357 275.067 318.397 274.16C317.463 273.227 316.09 272.76 314.277 272.76C313.023 272.76 311.89 273.053 310.877 273.64C309.863 274.2 309.09 274.973 308.557 275.96V288H302.757V267.96H308.157L308.317 269.88C310.077 268.333 312.33 267.533 315.077 267.48Z" fill="#0F8A75"/>
<path d="M334.954 288.48C333.941 288.48 333.101 288.173 332.434 287.56C331.794 286.92 331.474 286.107 331.474 285.12C331.474 284.133 331.794 283.333 332.434 282.72C333.101 282.08 333.941 281.76 334.954 281.76C335.994 281.76 336.834 282.08 337.474 282.72C338.114 283.333 338.434 284.133 338.434 285.12C338.434 286.133 338.114 286.947 337.474 287.56C336.834 288.173 335.994 288.48 334.954 288.48ZM334.954 275.28C333.941 275.28 333.101 274.973 332.434 274.36C331.794 273.72 331.474 272.907 331.474 271.92C331.474 270.933 331.794 270.133 332.434 269.52C333.101 268.88 333.941 268.56 334.954 268.56C335.994 268.56 336.834 268.88 337.474 269.52C338.114 270.133 338.434 270.933 338.434 271.92C338.434 272.933 338.114 273.747 337.474 274.36C336.834 274.973 335.994 275.28 334.954 275.28Z" fill="#0F8A75"/>
<path d="M19.1843 318.504V329H17.6003V318.504H19.1843Z" fill="#171A1B"/>
<path d="M26.3816 320.888C27.7682 320.888 28.8136 321.235 29.5176 321.928C30.2322 322.611 30.5896 323.619 30.5896 324.952V329H29.0696V324.952C29.0696 324.088 28.8242 323.432 28.3336 322.984C27.8536 322.526 27.1549 322.296 26.2376 322.296C25.6082 322.296 25.0322 322.44 24.5096 322.728C23.9976 323.016 23.6136 323.4 23.3576 323.88V329H21.8216V321.08H23.2456L23.3096 322.104C24.0989 321.315 25.1229 320.91 26.3816 320.888Z" fill="#171A1B"/>
<path d="M37.1006 329.192C35.6712 329.192 34.5459 328.963 33.7246 328.504C32.9032 328.046 32.4926 327.416 32.4926 326.616V326.504H34.0286V326.616C34.0286 327.406 35.0632 327.8 37.1326 327.8C38.0499 327.8 38.7486 327.715 39.2286 327.544C39.7086 327.363 39.9486 327.107 39.9486 326.776V326.664C39.9486 326.398 39.7992 326.2 39.5006 326.072C39.2019 325.944 38.6739 325.838 37.9166 325.752L36.0766 325.56C34.9352 325.443 34.1032 325.214 33.5806 324.872C33.0579 324.531 32.7966 324.04 32.7966 323.4V323.24C32.7966 322.504 33.1752 321.928 33.9326 321.512C34.6899 321.096 35.7406 320.888 37.0846 320.888C38.4712 320.888 39.5539 321.118 40.3326 321.576C41.1112 322.024 41.5006 322.648 41.5006 323.448V323.56H39.9806V323.448C39.9806 323.064 39.7299 322.771 39.2286 322.568C38.7379 322.366 38.0019 322.264 37.0206 322.264C36.1886 322.264 35.5379 322.35 35.0686 322.52C34.6099 322.68 34.3806 322.91 34.3806 323.208V323.32C34.3806 323.587 34.5086 323.79 34.7646 323.928C35.0312 324.067 35.4739 324.163 36.0926 324.216L37.9646 324.392C39.2126 324.51 40.1192 324.75 40.6846 325.112C41.2499 325.464 41.5326 325.971 41.5326 326.632V326.792C41.5326 327.539 41.1379 328.126 40.3486 328.552C39.5592 328.979 38.4766 329.192 37.1006 329.192Z" fill="#171A1B"/>
<path d="M46.3953 322.424V326.424C46.3953 326.819 46.5073 327.123 46.7313 327.336C46.9553 327.539 47.27 327.64 47.6753 327.64H49.5633V329H47.5473C46.7153 329 46.0593 328.776 45.5793 328.328C45.11 327.88 44.8753 327.262 44.8753 326.472V322.424H41.9153V321.08H44.4433C44.6247 321.08 44.7473 321.048 44.8113 320.984C44.8753 320.91 44.9073 320.787 44.9073 320.616V318.952H46.3953V321.08H50.0433V322.424H46.3953Z" fill="#171A1B"/>
<path d="M61.2838 327.64V329H60.2278C59.7052 329 59.2678 328.899 58.9158 328.696C58.5638 328.494 58.3185 328.206 58.1798 327.832C57.7532 328.291 57.2412 328.632 56.6438 328.856C56.0465 329.08 55.3425 329.192 54.5318 329.192C53.3905 329.192 52.5105 328.995 51.8918 328.6C51.2732 328.195 50.9638 327.619 50.9638 326.872C50.9638 326.232 51.2038 325.72 51.6838 325.336C52.1638 324.952 52.8678 324.712 53.7958 324.616L58.0678 324.168C58.0358 323.571 57.7852 323.118 57.3158 322.808C56.8465 322.499 56.1745 322.344 55.2998 322.344C54.4572 322.344 53.7852 322.488 53.2838 322.776C52.7825 323.064 52.5318 323.448 52.5318 323.928V323.992H51.0118V323.928C51.0118 323.331 51.1878 322.803 51.5398 322.344C51.9025 321.875 52.4092 321.518 53.0598 321.272C53.7105 321.016 54.4625 320.888 55.3158 320.888C56.6705 320.888 57.7212 321.187 58.4678 321.784C59.2145 322.382 59.5878 323.219 59.5878 324.296V326.76C59.5878 327.038 59.6732 327.256 59.8438 327.416C60.0145 327.566 60.2598 327.64 60.5798 327.64H61.2838ZM54.4998 327.832C55.3638 327.832 56.1052 327.699 56.7238 327.432C57.3425 327.155 57.7905 326.766 58.0678 326.264V325.416L54.1318 325.832C53.5772 325.886 53.1612 325.998 52.8838 326.168C52.6172 326.339 52.4838 326.574 52.4838 326.872C52.4838 327.512 53.1558 327.832 54.4998 327.832Z" fill="#171A1B"/>
<path d="M66.961 320.888C68.3476 320.888 69.393 321.235 70.097 321.928C70.8116 322.611 71.169 323.619 71.169 324.952V329H69.649V324.952C69.649 324.088 69.4036 323.432 68.913 322.984C68.433 322.526 67.7343 322.296 66.817 322.296C66.1876 322.296 65.6116 322.44 65.089 322.728C64.577 323.016 64.193 323.4 63.937 323.88V329H62.401V321.08H63.825L63.889 322.104C64.6783 321.315 65.7023 320.91 66.961 320.888Z" fill="#171A1B"/>
<path d="M76.2791 322.424V326.424C76.2791 326.819 76.3911 327.123 76.6151 327.336C76.8391 327.539 77.1537 327.64 77.5591 327.64H79.4471V329H77.4311C76.5991 329 75.9431 328.776 75.4631 328.328C74.9938 327.88 74.7591 327.262 74.7591 326.472V322.424H71.7991V321.08H74.3271C74.5084 321.08 74.6311 321.048 74.6951 320.984C74.7591 320.91 74.7911 320.787 74.7911 320.616V318.952H76.2791V321.08H79.9271V322.424H76.2791Z" fill="#171A1B"/>
<path d="M83.6796 329C82.9009 329 82.3089 328.824 81.9036 328.472C81.5089 328.11 81.3116 327.582 81.3116 326.888V317.864H82.8476V326.632C82.8476 326.995 82.9329 327.256 83.1036 327.416C83.2743 327.566 83.5569 327.64 83.9516 327.64H84.6396V329H83.6796Z" fill="#171A1B"/>
<path d="M94.8441 321.08V321.304L90.3321 329.88C89.9801 330.542 89.5694 331.011 89.1001 331.288C88.6414 331.576 88.0121 331.72 87.2121 331.72H85.6121V330.36H87.2121C87.6601 330.36 87.9961 330.291 88.2201 330.152C88.4441 330.024 88.6574 329.763 88.8601 329.368L89.0041 329.112L84.8761 321.304V321.08H86.5081L89.8681 327.608L93.2121 321.08H94.8441Z" fill="#171A1B"/>
<path d="M106.679 329.192C105.729 329.192 104.897 329.032 104.183 328.712C103.468 328.382 102.919 327.918 102.535 327.32C102.151 326.712 101.959 326.008 101.959 325.208V324.92C101.959 324.099 102.151 323.384 102.535 322.776C102.919 322.168 103.463 321.704 104.167 321.384C104.881 321.054 105.719 320.888 106.679 320.888C107.543 320.888 108.321 321.038 109.015 321.336C109.708 321.624 110.247 322.03 110.631 322.552C111.025 323.064 111.223 323.646 111.223 324.296V324.36H109.639V324.296C109.639 323.912 109.511 323.571 109.255 323.272C109.009 322.963 108.657 322.723 108.199 322.552C107.751 322.382 107.244 322.296 106.679 322.296C105.697 322.296 104.929 322.531 104.375 323C103.82 323.459 103.543 324.104 103.543 324.936V325.192C103.543 326.003 103.82 326.638 104.375 327.096C104.929 327.555 105.697 327.784 106.679 327.784C107.255 327.784 107.767 327.699 108.215 327.528C108.663 327.358 109.009 327.123 109.255 326.824C109.511 326.526 109.639 326.184 109.639 325.8V325.736H111.223V325.8C111.223 326.462 111.031 327.048 110.647 327.56C110.263 328.072 109.724 328.472 109.031 328.76C108.348 329.048 107.564 329.192 106.679 329.192Z" fill="#171A1B"/>
<path d="M118.981 321.08V322.424H117.221C116.645 322.424 116.133 322.52 115.685 322.712C115.248 322.904 114.907 323.176 114.661 323.528V329H113.125V321.08H114.565L114.613 321.992C114.965 321.694 115.381 321.47 115.861 321.32C116.341 321.16 116.864 321.08 117.429 321.08H118.981Z" fill="#171A1B"/>
<path d="M128.535 325.544H120.903C120.956 326.238 121.255 326.787 121.799 327.192C122.343 327.587 123.068 327.784 123.975 327.784C124.818 327.784 125.5 327.646 126.023 327.368C126.556 327.08 126.844 326.702 126.887 326.232H128.535C128.45 327.16 128.002 327.886 127.191 328.408C126.391 328.931 125.319 329.192 123.975 329.192C123.026 329.192 122.199 329.032 121.495 328.712C120.791 328.382 120.247 327.918 119.863 327.32C119.49 326.723 119.303 326.024 119.303 325.224V324.888C119.303 324.078 119.49 323.374 119.863 322.776C120.247 322.168 120.791 321.704 121.495 321.384C122.199 321.054 123.026 320.888 123.975 320.888C125.394 320.888 126.508 321.24 127.319 321.944C128.13 322.638 128.535 323.598 128.535 324.824V325.544ZM123.975 322.296C123.122 322.296 122.428 322.472 121.895 322.824C121.372 323.166 121.052 323.646 120.935 324.264H126.903C126.807 323.646 126.503 323.166 125.991 322.824C125.479 322.472 124.807 322.296 123.975 322.296Z" fill="#171A1B"/>
<path d="M140.341 327.64V329H139.285C138.763 329 138.325 328.899 137.973 328.696C137.621 328.494 137.376 328.206 137.237 327.832C136.811 328.291 136.299 328.632 135.701 328.856C135.104 329.08 134.4 329.192 133.589 329.192C132.448 329.192 131.568 328.995 130.949 328.6C130.331 328.195 130.021 327.619 130.021 326.872C130.021 326.232 130.261 325.72 130.741 325.336C131.221 324.952 131.925 324.712 132.853 324.616L137.125 324.168C137.093 323.571 136.843 323.118 136.373 322.808C135.904 322.499 135.232 322.344 134.357 322.344C133.515 322.344 132.843 322.488 132.341 322.776C131.84 323.064 131.589 323.448 131.589 323.928V323.992H130.069V323.928C130.069 323.331 130.245 322.803 130.597 322.344C130.96 321.875 131.467 321.518 132.117 321.272C132.768 321.016 133.52 320.888 134.373 320.888C135.728 320.888 136.779 321.187 137.525 321.784C138.272 322.382 138.645 323.219 138.645 324.296V326.76C138.645 327.038 138.731 327.256 138.901 327.416C139.072 327.566 139.317 327.64 139.637 327.64H140.341ZM133.557 327.832C134.421 327.832 135.163 327.699 135.781 327.432C136.4 327.155 136.848 326.766 137.125 326.264V325.416L133.189 325.832C132.635 325.886 132.219 325.998 131.941 326.168C131.675 326.339 131.541 326.574 131.541 326.872C131.541 327.512 132.213 327.832 133.557 327.832Z" fill="#171A1B"/>
<path d="M143.953 322.424V326.424C143.953 326.819 144.065 327.123 144.289 327.336C144.513 327.539 144.828 327.64 145.233 327.64H147.121V329H145.105C144.273 329 143.617 328.776 143.137 328.328C142.668 327.88 142.433 327.262 142.433 326.472V322.424H139.473V321.08H142.001C142.183 321.08 142.305 321.048 142.369 320.984C142.433 320.91 142.465 320.787 142.465 320.616V318.952H143.953V321.08H147.601V322.424H143.953Z" fill="#171A1B"/>
<path d="M157.153 325.544H149.521C149.574 326.238 149.873 326.787 150.417 327.192C150.961 327.587 151.686 327.784 152.593 327.784C153.436 327.784 154.118 327.646 154.641 327.368C155.174 327.08 155.462 326.702 155.505 326.232H157.153C157.068 327.16 156.62 327.886 155.809 328.408C155.009 328.931 153.937 329.192 152.593 329.192C151.644 329.192 150.817 329.032 150.113 328.712C149.409 328.382 148.865 327.918 148.481 327.32C148.108 326.723 147.921 326.024 147.921 325.224V324.888C147.921 324.078 148.108 323.374 148.481 322.776C148.865 322.168 149.409 321.704 150.113 321.384C150.817 321.054 151.644 320.888 152.593 320.888C154.012 320.888 155.126 321.24 155.937 321.944C156.748 322.638 157.153 323.598 157.153 324.824V325.544ZM152.593 322.296C151.74 322.296 151.046 322.472 150.513 322.824C149.99 323.166 149.67 323.646 149.553 324.264H155.521C155.425 323.646 155.121 323.166 154.609 322.824C154.097 322.472 153.425 322.296 152.593 322.296Z" fill="#171A1B"/>
<path d="M170.774 329.192C169.547 329.192 168.475 328.979 167.558 328.552C166.64 328.115 165.931 327.496 165.43 326.696C164.939 325.896 164.694 324.963 164.694 323.896V323.624C164.694 322.558 164.939 321.624 165.43 320.824C165.931 320.024 166.64 319.406 167.558 318.968C168.475 318.531 169.547 318.312 170.774 318.312C171.883 318.312 172.88 318.499 173.766 318.872C174.662 319.246 175.36 319.763 175.862 320.424C176.374 321.075 176.63 321.806 176.63 322.616V322.76H175.014V322.616C175.014 322.083 174.832 321.603 174.47 321.176C174.107 320.75 173.6 320.414 172.95 320.168C172.31 319.923 171.584 319.8 170.774 319.8C169.344 319.8 168.24 320.131 167.462 320.792C166.694 321.454 166.31 322.392 166.31 323.608V323.912C166.31 325.128 166.694 326.067 167.462 326.728C168.24 327.379 169.344 327.704 170.774 327.704C171.595 327.704 172.326 327.587 172.966 327.352C173.616 327.107 174.118 326.771 174.47 326.344C174.832 325.918 175.014 325.438 175.014 324.904V324.744H176.63V324.904C176.63 325.715 176.374 326.446 175.862 327.096C175.36 327.747 174.662 328.259 173.766 328.632C172.88 329.006 171.883 329.192 170.774 329.192Z" fill="#171A1B"/>
<path d="M189.078 321.864C189.078 322.739 188.763 323.448 188.134 323.992C187.515 324.536 186.662 324.835 185.574 324.888L189.03 328.76V329H187.206L183.51 324.888H180.406V329H178.806V318.504H185.27C186.454 318.504 187.382 318.787 188.054 319.352C188.737 319.907 189.078 320.675 189.078 321.656V321.864ZM187.462 321.608C187.462 321.075 187.265 320.664 186.87 320.376C186.486 320.078 185.942 319.928 185.238 319.928H180.406V323.48H185.238C185.942 323.48 186.486 323.336 186.87 323.048C187.265 322.75 187.462 322.334 187.462 321.8V321.608Z" fill="#171A1B"/>
<path d="M204.897 329H203.313V320.552L198.961 329H197.313L192.961 320.536V329H191.377V318.504H193.617L198.145 327.208L202.673 318.504H204.897V329Z" fill="#171A1B"/>
<path d="M216.028 329C215.249 329 214.657 328.824 214.252 328.472C213.857 328.11 213.66 327.582 213.66 326.888V317.864H215.196V326.632C215.196 326.995 215.281 327.256 215.452 327.416C215.622 327.566 215.905 327.64 216.3 327.64H216.988V329H216.028Z" fill="#171A1B"/>
<path d="M226.913 325.544H219.281C219.334 326.238 219.633 326.787 220.177 327.192C220.721 327.587 221.446 327.784 222.353 327.784C223.196 327.784 223.878 327.646 224.401 327.368C224.934 327.08 225.222 326.702 225.265 326.232H226.913C226.828 327.16 226.38 327.886 225.569 328.408C224.769 328.931 223.697 329.192 222.353 329.192C221.404 329.192 220.577 329.032 219.873 328.712C219.169 328.382 218.625 327.918 218.241 327.32C217.868 326.723 217.681 326.024 217.681 325.224V324.888C217.681 324.078 217.868 323.374 218.241 322.776C218.625 322.168 219.169 321.704 219.873 321.384C220.577 321.054 221.404 320.888 222.353 320.888C223.772 320.888 224.886 321.24 225.697 321.944C226.508 322.638 226.913 323.598 226.913 324.824V325.544ZM222.353 322.296C221.5 322.296 220.806 322.472 220.273 322.824C219.75 323.166 219.43 323.646 219.313 324.264H225.281C225.185 323.646 224.881 323.166 224.369 322.824C223.857 322.472 223.185 322.296 222.353 322.296Z" fill="#171A1B"/>
<path d="M238.719 327.64V329H237.663C237.141 329 236.703 328.899 236.351 328.696C235.999 328.494 235.754 328.206 235.615 327.832C235.189 328.291 234.677 328.632 234.079 328.856C233.482 329.08 232.778 329.192 231.967 329.192C230.826 329.192 229.946 328.995 229.327 328.6C228.709 328.195 228.399 327.619 228.399 326.872C228.399 326.232 228.639 325.72 229.119 325.336C229.599 324.952 230.303 324.712 231.231 324.616L235.503 324.168C235.471 323.571 235.221 323.118 234.751 322.808C234.282 322.499 233.61 322.344 232.735 322.344C231.893 322.344 231.221 322.488 230.719 322.776C230.218 323.064 229.967 323.448 229.967 323.928V323.992H228.447V323.928C228.447 323.331 228.623 322.803 228.975 322.344C229.338 321.875 229.845 321.518 230.495 321.272C231.146 321.016 231.898 320.888 232.751 320.888C234.106 320.888 235.157 321.187 235.903 321.784C236.65 322.382 237.023 323.219 237.023 324.296V326.76C237.023 327.038 237.109 327.256 237.279 327.416C237.45 327.566 237.695 327.64 238.015 327.64H238.719ZM231.935 327.832C232.799 327.832 233.541 327.699 234.159 327.432C234.778 327.155 235.226 326.766 235.503 326.264V325.416L231.567 325.832C231.013 325.886 230.597 325.998 230.319 326.168C230.053 326.339 229.919 326.574 229.919 326.872C229.919 327.512 230.591 327.832 231.935 327.832Z" fill="#171A1B"/>
<path d="M248.477 317.864V329H247.053L247.005 328.088C246.183 328.824 245.127 329.192 243.837 329.192C242.898 329.192 242.082 329.032 241.389 328.712C240.695 328.382 240.162 327.912 239.789 327.304C239.415 326.696 239.229 325.982 239.229 325.16V324.904C239.229 324.083 239.415 323.374 239.789 322.776C240.162 322.168 240.695 321.704 241.389 321.384C242.082 321.054 242.898 320.888 243.837 320.888C244.445 320.888 245.01 320.979 245.533 321.16C246.066 321.342 246.535 321.603 246.941 321.944V317.864H248.477ZM243.981 327.784C244.61 327.784 245.186 327.672 245.709 327.448C246.231 327.214 246.642 326.899 246.941 326.504V323.56C246.642 323.176 246.231 322.872 245.709 322.648C245.186 322.414 244.61 322.296 243.981 322.296C242.989 322.296 242.21 322.526 241.645 322.984C241.09 323.443 240.813 324.083 240.813 324.904V325.16C240.813 325.971 241.095 326.611 241.661 327.08C242.226 327.55 242.999 327.784 243.981 327.784Z" fill="#171A1B"/>
<path d="M255.1 329.192C253.671 329.192 252.545 328.963 251.724 328.504C250.903 328.046 250.492 327.416 250.492 326.616V326.504H252.028V326.616C252.028 327.406 253.063 327.8 255.132 327.8C256.049 327.8 256.748 327.715 257.228 327.544C257.708 327.363 257.948 327.107 257.948 326.776V326.664C257.948 326.398 257.799 326.2 257.5 326.072C257.201 325.944 256.673 325.838 255.916 325.752L254.076 325.56C252.935 325.443 252.103 325.214 251.58 324.872C251.057 324.531 250.796 324.04 250.796 323.4V323.24C250.796 322.504 251.175 321.928 251.932 321.512C252.689 321.096 253.74 320.888 255.084 320.888C256.471 320.888 257.553 321.118 258.332 321.576C259.111 322.024 259.5 322.648 259.5 323.448V323.56H257.98V323.448C257.98 323.064 257.729 322.771 257.228 322.568C256.737 322.366 256.001 322.264 255.02 322.264C254.188 322.264 253.537 322.35 253.068 322.52C252.609 322.68 252.38 322.91 252.38 323.208V323.32C252.38 323.587 252.508 323.79 252.764 323.928C253.031 324.067 253.473 324.163 254.092 324.216L255.964 324.392C257.212 324.51 258.119 324.75 258.684 325.112C259.249 325.464 259.532 325.971 259.532 326.632V326.792C259.532 327.539 259.137 328.126 258.348 328.552C257.559 328.979 256.476 329.192 255.1 329.192Z" fill="#171A1B"/>
<path d="M274.186 322.424H270.602V329H269.066V322.424H266.298V321.08H269.066V320.344C269.066 319.576 269.29 318.974 269.738 318.536C270.196 318.088 270.82 317.864 271.61 317.864H273.546V319.224H271.802C271.418 319.224 271.119 319.326 270.906 319.528C270.703 319.731 270.602 320.03 270.602 320.424V321.08H274.186V322.424Z" fill="#171A1B"/>
<path d="M281.354 321.08V322.424H279.594C279.018 322.424 278.506 322.52 278.058 322.712C277.621 322.904 277.279 323.176 277.034 323.528V329H275.498V321.08H276.938L276.986 321.992C277.338 321.694 277.754 321.47 278.234 321.32C278.714 321.16 279.236 321.08 279.802 321.08H281.354Z" fill="#171A1B"/>
<path d="M286.427 329.192C285.457 329.192 284.614 329.032 283.899 328.712C283.185 328.382 282.635 327.918 282.251 327.32C281.867 326.712 281.675 326.003 281.675 325.192V324.92C281.675 324.099 281.867 323.384 282.251 322.776C282.635 322.168 283.185 321.704 283.899 321.384C284.614 321.054 285.457 320.888 286.427 320.888C287.387 320.888 288.219 321.054 288.923 321.384C289.638 321.704 290.182 322.168 290.555 322.776C290.939 323.384 291.131 324.099 291.131 324.92V325.192C291.131 326.003 290.939 326.712 290.555 327.32C290.182 327.918 289.638 328.382 288.923 328.712C288.219 329.032 287.387 329.192 286.427 329.192ZM286.411 327.784C287.393 327.784 288.161 327.555 288.715 327.096C289.27 326.638 289.547 326.003 289.547 325.192V324.92C289.547 324.099 289.27 323.459 288.715 323C288.161 322.531 287.393 322.296 286.411 322.296C285.409 322.296 284.63 322.526 284.075 322.984C283.531 323.443 283.259 324.088 283.259 324.92V325.192C283.259 326.003 283.537 326.638 284.091 327.096C284.657 327.555 285.43 327.784 286.411 327.784Z" fill="#171A1B"/>
<path d="M304.181 320.888C305.471 320.888 306.458 321.235 307.141 321.928C307.823 322.611 308.165 323.603 308.165 324.904V329H306.629V324.904C306.629 324.062 306.41 323.416 305.973 322.968C305.535 322.52 304.911 322.296 304.101 322.296C303.482 322.296 302.906 322.446 302.373 322.744C301.85 323.043 301.45 323.438 301.173 323.928C301.226 324.27 301.253 324.595 301.253 324.904V329H299.733V324.904C299.733 324.072 299.514 323.432 299.077 322.984C298.639 322.526 298.015 322.296 297.205 322.296C296.586 322.296 296.021 322.446 295.509 322.744C294.997 323.032 294.613 323.422 294.357 323.912V329H292.837V321.08H294.261L294.309 322.104C294.693 321.71 295.141 321.411 295.653 321.208C296.175 320.995 296.741 320.888 297.349 320.888C298.138 320.888 298.815 321.027 299.381 321.304C299.946 321.571 300.383 321.966 300.693 322.488C301.109 321.976 301.61 321.582 302.197 321.304C302.794 321.027 303.455 320.888 304.181 320.888Z" fill="#171A1B"/>
<path d="M21.9203 342.888C23.307 342.888 24.3523 343.235 25.0563 343.928C25.771 344.611 26.1283 345.619 26.1283 346.952V351H24.6083V346.952C24.6083 346.088 24.363 345.432 23.8723 344.984C23.3923 344.526 22.6937 344.296 21.7763 344.296C21.147 344.296 20.571 344.44 20.0483 344.728C19.5363 345.016 19.1523 345.4 18.8963 345.88V351H17.3603V343.08H18.7843L18.8483 344.104C19.6377 343.315 20.6617 342.91 21.9203 342.888Z" fill="#171A1B"/>
<path d="M37.0393 347.544H29.4073C29.4607 348.238 29.7593 348.787 30.3033 349.192C30.8473 349.587 31.5727 349.784 32.4793 349.784C33.322 349.784 34.0047 349.646 34.5273 349.368C35.0607 349.08 35.3487 348.702 35.3913 348.232H37.0393C36.954 349.16 36.506 349.886 35.6953 350.408C34.8953 350.931 33.8233 351.192 32.4793 351.192C31.53 351.192 30.7033 351.032 29.9993 350.712C29.2953 350.382 28.7513 349.918 28.3673 349.32C27.994 348.723 27.8073 348.024 27.8073 347.224V346.888C27.8073 346.078 27.994 345.374 28.3673 344.776C28.7513 344.168 29.2953 343.704 29.9993 343.384C30.7033 343.054 31.53 342.888 32.4793 342.888C33.898 342.888 35.0127 343.24 35.8233 343.944C36.634 344.638 37.0393 345.598 37.0393 346.824V347.544ZM32.4793 344.296C31.626 344.296 30.9327 344.472 30.3993 344.824C29.8767 345.166 29.5567 345.646 29.4393 346.264H35.4073C35.3113 345.646 35.0073 345.166 34.4953 344.824C33.9833 344.472 33.3113 344.296 32.4793 344.296Z" fill="#171A1B"/>
<path d="M53.5591 343.08V343.304L50.2151 351H48.1991L45.6071 344.952L43.0311 351H41.0311L37.6711 343.304V343.08H39.3031L42.0231 349.608L44.8231 343.08H46.3911L49.2231 349.656L52.0071 343.08H53.5591Z" fill="#171A1B"/>
<path d="M65.3955 351.192C64.4461 351.192 63.6141 351.032 62.8995 350.712C62.1848 350.382 61.6355 349.918 61.2515 349.32C60.8675 348.712 60.6755 348.008 60.6755 347.208V346.92C60.6755 346.099 60.8675 345.384 61.2515 344.776C61.6355 344.168 62.1795 343.704 62.8835 343.384C63.5981 343.054 64.4355 342.888 65.3955 342.888C66.2595 342.888 67.0381 343.038 67.7315 343.336C68.4248 343.624 68.9635 344.03 69.3475 344.552C69.7421 345.064 69.9395 345.646 69.9395 346.296V346.36H68.3555V346.296C68.3555 345.912 68.2275 345.571 67.9715 345.272C67.7261 344.963 67.3741 344.723 66.9155 344.552C66.4675 344.382 65.9608 344.296 65.3955 344.296C64.4141 344.296 63.6461 344.531 63.0915 345C62.5368 345.459 62.2595 346.104 62.2595 346.936V347.192C62.2595 348.003 62.5368 348.638 63.0915 349.096C63.6461 349.555 64.4141 349.784 65.3955 349.784C65.9715 349.784 66.4835 349.699 66.9315 349.528C67.3795 349.358 67.7261 349.123 67.9715 348.824C68.2275 348.526 68.3555 348.184 68.3555 347.8V347.736H69.9395V347.8C69.9395 348.462 69.7475 349.048 69.3635 349.56C68.9795 350.072 68.4408 350.472 67.7475 350.76C67.0648 351.048 66.2808 351.192 65.3955 351.192Z" fill="#171A1B"/>
<path d="M75.8262 351.192C74.8555 351.192 74.0129 351.032 73.2982 350.712C72.5835 350.382 72.0342 349.918 71.6502 349.32C71.2662 348.712 71.0742 348.003 71.0742 347.192V346.92C71.0742 346.099 71.2662 345.384 71.6502 344.776C72.0342 344.168 72.5835 343.704 73.2982 343.384C74.0129 343.054 74.8555 342.888 75.8262 342.888C76.7862 342.888 77.6182 343.054 78.3222 343.384C79.0369 343.704 79.5809 344.168 79.9542 344.776C80.3382 345.384 80.5302 346.099 80.5302 346.92V347.192C80.5302 348.003 80.3382 348.712 79.9542 349.32C79.5809 349.918 79.0369 350.382 78.3222 350.712C77.6182 351.032 76.7862 351.192 75.8262 351.192ZM75.8102 349.784C76.7915 349.784 77.5595 349.555 78.1142 349.096C78.6689 348.638 78.9462 348.003 78.9462 347.192V346.92C78.9462 346.099 78.6689 345.459 78.1142 345C77.5595 344.531 76.7915 344.296 75.8102 344.296C74.8075 344.296 74.0289 344.526 73.4742 344.984C72.9302 345.443 72.6582 346.088 72.6582 346.92V347.192C72.6582 348.003 72.9355 348.638 73.4902 349.096C74.0555 349.555 74.8289 349.784 75.8102 349.784Z" fill="#171A1B"/>
<path d="M86.8753 342.888C88.262 342.888 89.3073 343.235 90.0113 343.928C90.726 344.611 91.0833 345.619 91.0833 346.952V351H89.5633V346.952C89.5633 346.088 89.318 345.432 88.8273 344.984C88.3473 344.526 87.6487 344.296 86.7313 344.296C86.102 344.296 85.526 344.44 85.0033 344.728C84.4913 345.016 84.1073 345.4 83.8513 345.88V351H82.3153V343.08H83.7393L83.8033 344.104C84.5927 343.315 85.6167 342.91 86.8753 342.888Z" fill="#171A1B"/>
<path d="M102.102 343.08V343.304L98.1176 351H96.1336L92.1336 343.304V343.08H93.7336L97.1256 349.656L100.502 343.08H102.102Z" fill="#171A1B"/>
<path d="M111.971 347.544H104.339C104.393 348.238 104.691 348.787 105.235 349.192C105.779 349.587 106.505 349.784 107.411 349.784C108.254 349.784 108.937 349.646 109.459 349.368C109.993 349.08 110.281 348.702 110.323 348.232H111.971C111.886 349.16 111.438 349.886 110.627 350.408C109.827 350.931 108.755 351.192 107.411 351.192C106.462 351.192 105.635 351.032 104.931 350.712C104.227 350.382 103.683 349.918 103.299 349.32C102.926 348.723 102.739 348.024 102.739 347.224V346.888C102.739 346.078 102.926 345.374 103.299 344.776C103.683 344.168 104.227 343.704 104.931 343.384C105.635 343.054 106.462 342.888 107.411 342.888C108.83 342.888 109.945 343.24 110.755 343.944C111.566 344.638 111.971 345.598 111.971 346.824V347.544ZM107.411 344.296C106.558 344.296 105.865 344.472 105.331 344.824C104.809 345.166 104.489 345.646 104.371 346.264H110.339C110.243 345.646 109.939 345.166 109.427 344.824C108.915 344.472 108.243 344.296 107.411 344.296Z" fill="#171A1B"/>
<path d="M119.778 343.08V344.424H118.018C117.442 344.424 116.93 344.52 116.482 344.712C116.044 344.904 115.703 345.176 115.458 345.528V351H113.922V343.08H115.362L115.41 343.992C115.762 343.694 116.178 343.47 116.658 343.32C117.138 343.16 117.66 343.08 118.226 343.08H119.778Z" fill="#171A1B"/>
<path d="M124.931 351.192C123.502 351.192 122.377 350.963 121.555 350.504C120.734 350.046 120.323 349.416 120.323 348.616V348.504H121.859V348.616C121.859 349.406 122.894 349.8 124.963 349.8C125.881 349.8 126.579 349.715 127.059 349.544C127.539 349.363 127.779 349.107 127.779 348.776V348.664C127.779 348.398 127.63 348.2 127.331 348.072C127.033 347.944 126.505 347.838 125.747 347.752L123.907 347.56C122.766 347.443 121.934 347.214 121.411 346.872C120.889 346.531 120.627 346.04 120.627 345.4V345.24C120.627 344.504 121.006 343.928 121.763 343.512C122.521 343.096 123.571 342.888 124.915 342.888C126.302 342.888 127.385 343.118 128.163 343.576C128.942 344.024 129.331 344.648 129.331 345.448V345.56H127.811V345.448C127.811 345.064 127.561 344.771 127.059 344.568C126.569 344.366 125.833 344.264 124.851 344.264C124.019 344.264 123.369 344.35 122.899 344.52C122.441 344.68 122.211 344.91 122.211 345.208V345.32C122.211 345.587 122.339 345.79 122.595 345.928C122.862 346.067 123.305 346.163 123.923 346.216L125.795 346.392C127.043 346.51 127.95 346.75 128.515 347.112C129.081 347.464 129.363 347.971 129.363 348.632V348.792C129.363 349.539 128.969 350.126 128.179 350.552C127.39 350.979 126.307 351.192 124.931 351.192Z" fill="#171A1B"/>
<path d="M141.419 349.64V351H140.363C139.84 351 139.403 350.899 139.051 350.696C138.699 350.494 138.454 350.206 138.315 349.832C137.888 350.291 137.376 350.632 136.779 350.856C136.181 351.08 135.478 351.192 134.667 351.192C133.526 351.192 132.646 350.995 132.027 350.6C131.408 350.195 131.099 349.619 131.099 348.872C131.099 348.232 131.339 347.72 131.819 347.336C132.299 346.952 133.003 346.712 133.931 346.616L138.203 346.168C138.171 345.571 137.92 345.118 137.451 344.808C136.982 344.499 136.309 344.344 135.435 344.344C134.592 344.344 133.92 344.488 133.419 344.776C132.917 345.064 132.667 345.448 132.667 345.928V345.992H131.147V345.928C131.147 345.331 131.323 344.803 131.675 344.344C132.037 343.875 132.544 343.518 133.195 343.272C133.846 343.016 134.597 342.888 135.451 342.888C136.806 342.888 137.856 343.187 138.603 343.784C139.349 344.382 139.723 345.219 139.723 346.296V348.76C139.723 349.038 139.808 349.256 139.979 349.416C140.15 349.566 140.395 349.64 140.715 349.64H141.419ZM134.635 349.832C135.499 349.832 136.24 349.699 136.859 349.432C137.478 349.155 137.926 348.766 138.203 348.264V347.416L134.267 347.832C133.712 347.886 133.296 347.998 133.019 348.168C132.752 348.339 132.619 348.574 132.619 348.872C132.619 349.512 133.291 349.832 134.635 349.832Z" fill="#171A1B"/>
<path d="M145.031 344.424V348.424C145.031 348.819 145.143 349.123 145.367 349.336C145.591 349.539 145.906 349.64 146.311 349.64H148.199V351H146.183C145.351 351 144.695 350.776 144.215 350.328C143.746 349.88 143.511 349.262 143.511 348.472V344.424H140.551V343.08H143.079C143.26 343.08 143.383 343.048 143.447 342.984C143.511 342.91 143.543 342.787 143.543 342.616V340.952H145.031V343.08H148.679V344.424H145.031Z" fill="#171A1B"/>
<path d="M151.599 343.08V351H150.063V343.08H151.599ZM150.831 341.816C150.522 341.816 150.271 341.726 150.079 341.544C149.887 341.352 149.791 341.107 149.791 340.808C149.791 340.52 149.887 340.286 150.079 340.104C150.271 339.923 150.522 339.832 150.831 339.832C151.141 339.832 151.391 339.923 151.583 340.104C151.775 340.286 151.871 340.52 151.871 340.808C151.871 341.107 151.775 341.352 151.583 341.544C151.391 341.726 151.141 341.816 150.831 341.816Z" fill="#171A1B"/>
<path d="M158.306 351.192C157.335 351.192 156.492 351.032 155.778 350.712C155.063 350.382 154.514 349.918 154.13 349.32C153.746 348.712 153.554 348.003 153.554 347.192V346.92C153.554 346.099 153.746 345.384 154.13 344.776C154.514 344.168 155.063 343.704 155.778 343.384C156.492 343.054 157.335 342.888 158.306 342.888C159.266 342.888 160.098 343.054 160.802 343.384C161.516 343.704 162.06 344.168 162.434 344.776C162.818 345.384 163.01 346.099 163.01 346.92V347.192C163.01 348.003 162.818 348.712 162.434 349.32C162.06 349.918 161.516 350.382 160.802 350.712C160.098 351.032 159.266 351.192 158.306 351.192ZM158.29 349.784C159.271 349.784 160.039 349.555 160.594 349.096C161.148 348.638 161.426 348.003 161.426 347.192V346.92C161.426 346.099 161.148 345.459 160.594 345C160.039 344.531 159.271 344.296 158.29 344.296C157.287 344.296 156.508 344.526 155.954 344.984C155.41 345.443 155.138 346.088 155.138 346.92V347.192C155.138 348.003 155.415 348.638 155.97 349.096C156.535 349.555 157.308 349.784 158.29 349.784Z" fill="#171A1B"/>
<path d="M169.355 342.888C170.741 342.888 171.787 343.235 172.491 343.928C173.205 344.611 173.563 345.619 173.563 346.952V351H172.043V346.952C172.043 346.088 171.797 345.432 171.307 344.984C170.827 344.526 170.128 344.296 169.211 344.296C168.581 344.296 168.005 344.44 167.483 344.728C166.971 345.016 166.587 345.4 166.331 345.88V351H164.795V343.08H166.219L166.283 344.104C167.072 343.315 168.096 342.91 169.355 342.888Z" fill="#171A1B"/>
<path d="M180.074 351.192C178.644 351.192 177.519 350.963 176.698 350.504C175.876 350.046 175.466 349.416 175.466 348.616V348.504H177.002V348.616C177.002 349.406 178.036 349.8 180.106 349.8C181.023 349.8 181.722 349.715 182.202 349.544C182.682 349.363 182.922 349.107 182.922 348.776V348.664C182.922 348.398 182.772 348.2 182.474 348.072C182.175 347.944 181.647 347.838 180.89 347.752L179.05 347.56C177.908 347.443 177.076 347.214 176.554 346.872C176.031 346.531 175.77 346.04 175.77 345.4V345.24C175.77 344.504 176.148 343.928 176.906 343.512C177.663 343.096 178.714 342.888 180.058 342.888C181.444 342.888 182.527 343.118 183.306 343.576C184.084 344.024 184.474 344.648 184.474 345.448V345.56H182.954V345.448C182.954 345.064 182.703 344.771 182.202 344.568C181.711 344.366 180.975 344.264 179.994 344.264C179.162 344.264 178.511 344.35 178.042 344.52C177.583 344.68 177.354 344.91 177.354 345.208V345.32C177.354 345.587 177.482 345.79 177.738 345.928C178.004 346.067 178.447 346.163 179.066 346.216L180.938 346.392C182.186 346.51 183.092 346.75 183.658 347.112C184.223 347.464 184.506 347.971 184.506 348.632V348.792C184.506 349.539 184.111 350.126 183.322 350.552C182.532 350.979 181.45 351.192 180.074 351.192Z" fill="#171A1B"/>
<path d="M187.389 351.192C187.101 351.192 186.866 351.102 186.685 350.92C186.503 350.739 186.413 350.51 186.413 350.232C186.413 349.955 186.503 349.726 186.685 349.544C186.866 349.363 187.101 349.272 187.389 349.272C187.677 349.272 187.911 349.363 188.093 349.544C188.274 349.726 188.365 349.955 188.365 350.232C188.365 350.51 188.274 350.739 188.093 350.92C187.911 351.102 187.677 351.192 187.389 351.192Z" fill="#171A1B"/>
<path d="M28.0003 372.76V373H26.3683L25.1203 370.344H19.2003L17.9523 373H16.3203V372.76L21.2803 362.504H23.0403L28.0003 372.76ZM24.4323 368.904L22.1603 364.088L19.8883 368.904H24.4323Z" fill="#171A1B"/>
<path d="M31.8808 373C31.1022 373 30.5102 372.824 30.1048 372.472C29.7102 372.11 29.5128 371.582 29.5128 370.888V361.864H31.0488V370.632C31.0488 370.995 31.1342 371.256 31.3048 371.416C31.4755 371.566 31.7582 371.64 32.1528 371.64H32.8408V373H31.8808Z" fill="#171A1B"/>
<path d="M38.3662 373.192C36.9369 373.192 35.8115 372.963 34.9902 372.504C34.1689 372.046 33.7582 371.416 33.7582 370.616V370.504H35.2942V370.616C35.2942 371.406 36.3289 371.8 38.3982 371.8C39.3155 371.8 40.0142 371.715 40.4942 371.544C40.9742 371.363 41.2142 371.107 41.2142 370.776V370.664C41.2142 370.398 41.0649 370.2 40.7662 370.072C40.4675 369.944 39.9395 369.838 39.1822 369.752L37.3422 369.56C36.2009 369.443 35.3689 369.214 34.8462 368.872C34.3235 368.531 34.0622 368.04 34.0622 367.4V367.24C34.0622 366.504 34.4409 365.928 35.1982 365.512C35.9555 365.096 37.0062 364.888 38.3502 364.888C39.7369 364.888 40.8195 365.118 41.5982 365.576C42.3769 366.024 42.7662 366.648 42.7662 367.448V367.56H41.2462V367.448C41.2462 367.064 40.9955 366.771 40.4942 366.568C40.0035 366.366 39.2675 366.264 38.2862 366.264C37.4542 366.264 36.8035 366.35 36.3342 366.52C35.8755 366.68 35.6462 366.91 35.6462 367.208V367.32C35.6462 367.587 35.7742 367.79 36.0302 367.928C36.2969 368.067 36.7395 368.163 37.3582 368.216L39.2302 368.392C40.4782 368.51 41.3849 368.75 41.9502 369.112C42.5155 369.464 42.7982 369.971 42.7982 370.632V370.792C42.7982 371.539 42.4035 372.126 41.6142 372.552C40.8249 372.979 39.7422 373.192 38.3662 373.192Z" fill="#171A1B"/>
<path d="M48.9818 373.192C48.0112 373.192 47.1685 373.032 46.4538 372.712C45.7392 372.382 45.1898 371.918 44.8058 371.32C44.4218 370.712 44.2298 370.003 44.2298 369.192V368.92C44.2298 368.099 44.4218 367.384 44.8058 366.776C45.1898 366.168 45.7392 365.704 46.4538 365.384C47.1685 365.054 48.0112 364.888 48.9818 364.888C49.9418 364.888 50.7738 365.054 51.4778 365.384C52.1925 365.704 52.7365 366.168 53.1098 366.776C53.4938 367.384 53.6858 368.099 53.6858 368.92V369.192C53.6858 370.003 53.4938 370.712 53.1098 371.32C52.7365 371.918 52.1925 372.382 51.4778 372.712C50.7738 373.032 49.9418 373.192 48.9818 373.192ZM48.9658 371.784C49.9472 371.784 50.7152 371.555 51.2698 371.096C51.8245 370.638 52.1018 370.003 52.1018 369.192V368.92C52.1018 368.099 51.8245 367.459 51.2698 367C50.7152 366.531 49.9472 366.296 48.9658 366.296C47.9632 366.296 47.1845 366.526 46.6298 366.984C46.0858 367.443 45.8138 368.088 45.8138 368.92V369.192C45.8138 370.003 46.0912 370.638 46.6458 371.096C47.2112 371.555 47.9845 371.784 48.9658 371.784Z" fill="#171A1B"/>
<path d="M71.5732 371.64V373H70.5172C69.9945 373 69.5572 372.899 69.2052 372.696C68.8532 372.494 68.6079 372.206 68.4692 371.832C68.0425 372.291 67.5305 372.632 66.9332 372.856C66.3359 373.08 65.6319 373.192 64.8212 373.192C63.6799 373.192 62.7999 372.995 62.1812 372.6C61.5625 372.195 61.2532 371.619 61.2532 370.872C61.2532 370.232 61.4932 369.72 61.9732 369.336C62.4532 368.952 63.1572 368.712 64.0852 368.616L68.3572 368.168C68.3252 367.571 68.0745 367.118 67.6052 366.808C67.1359 366.499 66.4639 366.344 65.5892 366.344C64.7465 366.344 64.0745 366.488 63.5732 366.776C63.0719 367.064 62.8212 367.448 62.8212 367.928V367.992H61.3012V367.928C61.3012 367.331 61.4772 366.803 61.8292 366.344C62.1919 365.875 62.6985 365.518 63.3492 365.272C63.9999 365.016 64.7519 364.888 65.6052 364.888C66.9599 364.888 68.0105 365.187 68.7572 365.784C69.5039 366.382 69.8772 367.219 69.8772 368.296V370.76C69.8772 371.038 69.9625 371.256 70.1332 371.416C70.3039 371.566 70.5492 371.64 70.8692 371.64H71.5732ZM64.7892 371.832C65.6532 371.832 66.3945 371.699 67.0132 371.432C67.6319 371.155 68.0799 370.766 68.3572 370.264V369.416L64.4212 369.832C63.8665 369.886 63.4505 369.998 63.1732 370.168C62.9065 370.339 62.7732 370.574 62.7732 370.872C62.7732 371.512 63.4452 371.832 64.7892 371.832Z" fill="#171A1B"/>
<path d="M81.3435 365.08V365.304L77.3595 373H75.3755L71.3755 365.304V365.08H72.9755L76.3675 371.656L79.7435 365.08H81.3435Z" fill="#171A1B"/>
<path d="M92.6988 371.64V373H91.6428C91.1202 373 90.6828 372.899 90.3308 372.696C89.9788 372.494 89.7335 372.206 89.5948 371.832C89.1682 372.291 88.6562 372.632 88.0588 372.856C87.4615 373.08 86.7575 373.192 85.9468 373.192C84.8055 373.192 83.9255 372.995 83.3068 372.6C82.6882 372.195 82.3788 371.619 82.3788 370.872C82.3788 370.232 82.6188 369.72 83.0988 369.336C83.5788 368.952 84.2828 368.712 85.2108 368.616L89.4828 368.168C89.4508 367.571 89.2002 367.118 88.7308 366.808C88.2615 366.499 87.5895 366.344 86.7148 366.344C85.8722 366.344 85.2002 366.488 84.6988 366.776C84.1975 367.064 83.9468 367.448 83.9468 367.928V367.992H82.4268V367.928C82.4268 367.331 82.6028 366.803 82.9548 366.344C83.3175 365.875 83.8242 365.518 84.4748 365.272C85.1255 365.016 85.8775 364.888 86.7308 364.888C88.0855 364.888 89.1362 365.187 89.8828 365.784C90.6295 366.382 91.0028 367.219 91.0028 368.296V370.76C91.0028 371.038 91.0882 371.256 91.2588 371.416C91.4295 371.566 91.6748 371.64 91.9948 371.64H92.6988ZM85.9148 371.832C86.7788 371.832 87.5202 371.699 88.1388 371.432C88.7575 371.155 89.2055 370.766 89.4828 370.264V369.416L85.5468 369.832C84.9922 369.886 84.5762 369.998 84.2988 370.168C84.0322 370.339 83.8988 370.574 83.8988 370.872C83.8988 371.512 84.5708 371.832 85.9148 371.832Z" fill="#171A1B"/>
<path d="M95.512 365.08V373H93.976V365.08H95.512ZM94.744 363.816C94.4346 363.816 94.184 363.726 93.992 363.544C93.8 363.352 93.704 363.107 93.704 362.808C93.704 362.52 93.8 362.286 93.992 362.104C94.184 361.923 94.4346 361.832 94.744 361.832C95.0533 361.832 95.304 361.923 95.496 362.104C95.688 362.286 95.784 362.52 95.784 362.808C95.784 363.107 95.688 363.352 95.496 363.544C95.304 363.726 95.0533 363.816 94.744 363.816Z" fill="#171A1B"/>
<path d="M100.602 373C99.8234 373 99.2314 372.824 98.8261 372.472C98.4314 372.11 98.2341 371.582 98.2341 370.888V361.864H99.7701V370.632C99.7701 370.995 99.8554 371.256 100.026 371.416C100.197 371.566 100.479 371.64 100.874 371.64H101.562V373H100.602Z" fill="#171A1B"/>
<path d="M112.879 371.64V373H111.823C111.301 373 110.863 372.899 110.511 372.696C110.159 372.494 109.914 372.206 109.775 371.832C109.349 372.291 108.837 372.632 108.239 372.856C107.642 373.08 106.938 373.192 106.127 373.192C104.986 373.192 104.106 372.995 103.487 372.6C102.869 372.195 102.559 371.619 102.559 370.872C102.559 370.232 102.799 369.72 103.279 369.336C103.759 368.952 104.463 368.712 105.391 368.616L109.663 368.168C109.631 367.571 109.381 367.118 108.911 366.808C108.442 366.499 107.77 366.344 106.895 366.344C106.053 366.344 105.381 366.488 104.879 366.776C104.378 367.064 104.127 367.448 104.127 367.928V367.992H102.607V367.928C102.607 367.331 102.783 366.803 103.135 366.344C103.498 365.875 104.005 365.518 104.655 365.272C105.306 365.016 106.058 364.888 106.911 364.888C108.266 364.888 109.317 365.187 110.063 365.784C110.81 366.382 111.183 367.219 111.183 368.296V370.76C111.183 371.038 111.269 371.256 111.439 371.416C111.61 371.566 111.855 371.64 112.175 371.64H112.879ZM106.095 371.832C106.959 371.832 107.701 371.699 108.319 371.432C108.938 371.155 109.386 370.766 109.663 370.264V369.416L105.727 369.832C105.173 369.886 104.757 369.998 104.479 370.168C104.213 370.339 104.079 370.574 104.079 370.872C104.079 371.512 104.751 371.832 106.095 371.832Z" fill="#171A1B"/>
<path d="M118.637 364.888C119.575 364.888 120.391 365.054 121.085 365.384C121.778 365.704 122.311 366.168 122.685 366.776C123.058 367.374 123.245 368.083 123.245 368.904V369.16C123.245 369.982 123.058 370.696 122.685 371.304C122.311 371.912 121.778 372.382 121.085 372.712C120.391 373.032 119.575 373.192 118.637 373.192C118.007 373.192 117.421 373.096 116.877 372.904C116.343 372.712 115.874 372.44 115.469 372.088L115.421 373H113.997V361.864H115.533V365.944C115.938 365.603 116.402 365.342 116.925 365.16C117.458 364.979 118.029 364.888 118.637 364.888ZM121.661 368.904C121.661 368.083 121.378 367.443 120.813 366.984C120.258 366.526 119.485 366.296 118.493 366.296C117.863 366.296 117.287 366.414 116.765 366.648C116.242 366.872 115.831 367.176 115.533 367.56V370.504C115.831 370.899 116.242 371.214 116.765 371.448C117.287 371.672 117.863 371.784 118.493 371.784C119.474 371.784 120.247 371.55 120.813 371.08C121.378 370.611 121.661 369.971 121.661 369.16V368.904Z" fill="#171A1B"/>
<path d="M127.564 373C126.785 373 126.193 372.824 125.788 372.472C125.393 372.11 125.196 371.582 125.196 370.888V361.864H126.732V370.632C126.732 370.995 126.817 371.256 126.988 371.416C127.159 371.566 127.441 371.64 127.836 371.64H128.524V373H127.564Z" fill="#171A1B"/>
<path d="M138.449 369.544H130.817C130.871 370.238 131.169 370.787 131.713 371.192C132.257 371.587 132.983 371.784 133.889 371.784C134.732 371.784 135.415 371.646 135.937 371.368C136.471 371.08 136.759 370.702 136.801 370.232H138.449C138.364 371.16 137.916 371.886 137.105 372.408C136.305 372.931 135.233 373.192 133.889 373.192C132.94 373.192 132.113 373.032 131.409 372.712C130.705 372.382 130.161 371.918 129.777 371.32C129.404 370.723 129.217 370.024 129.217 369.224V368.888C129.217 368.078 129.404 367.374 129.777 366.776C130.161 366.168 130.705 365.704 131.409 365.384C132.113 365.054 132.94 364.888 133.889 364.888C135.308 364.888 136.423 365.24 137.233 365.944C138.044 366.638 138.449 367.598 138.449 368.824V369.544ZM133.889 366.296C133.036 366.296 132.343 366.472 131.809 366.824C131.287 367.166 130.967 367.646 130.849 368.264H136.817C136.721 367.646 136.417 367.166 135.905 366.824C135.393 366.472 134.721 366.296 133.889 366.296Z" fill="#171A1B"/>
<path d="M152.07 373.192C150.843 373.192 149.771 372.979 148.854 372.552C147.937 372.115 147.227 371.496 146.726 370.696C146.235 369.896 145.99 368.963 145.99 367.896V367.624C145.99 366.558 146.235 365.624 146.726 364.824C147.227 364.024 147.937 363.406 148.854 362.968C149.771 362.531 150.843 362.312 152.07 362.312C153.179 362.312 154.177 362.499 155.062 362.872C155.958 363.246 156.657 363.763 157.158 364.424C157.67 365.075 157.926 365.806 157.926 366.616V366.76H156.31V366.616C156.31 366.083 156.129 365.603 155.766 365.176C155.403 364.75 154.897 364.414 154.246 364.168C153.606 363.923 152.881 363.8 152.07 363.8C150.641 363.8 149.537 364.131 148.758 364.792C147.99 365.454 147.606 366.392 147.606 367.608V367.912C147.606 369.128 147.99 370.067 148.758 370.728C149.537 371.379 150.641 371.704 152.07 371.704C152.891 371.704 153.622 371.587 154.262 371.352C154.913 371.107 155.414 370.771 155.766 370.344C156.129 369.918 156.31 369.438 156.31 368.904V368.744H157.926V368.904C157.926 369.715 157.67 370.446 157.158 371.096C156.657 371.747 155.958 372.259 155.062 372.632C154.177 373.006 153.179 373.192 152.07 373.192Z" fill="#0F8A75"/>
<path d="M166.006 365.08V366.424H164.246C163.67 366.424 163.158 366.52 162.71 366.712C162.273 366.904 161.932 367.176 161.686 367.528V373H160.15V365.08H161.59L161.638 365.992C161.99 365.694 162.406 365.47 162.886 365.32C163.366 365.16 163.889 365.08 164.454 365.08H166.006Z" fill="#0F8A75"/>
<path d="M175.56 369.544H167.928C167.981 370.238 168.28 370.787 168.824 371.192C169.368 371.587 170.093 371.784 171 371.784C171.843 371.784 172.525 371.646 173.048 371.368C173.581 371.08 173.869 370.702 173.912 370.232H175.56C175.475 371.16 175.027 371.886 174.216 372.408C173.416 372.931 172.344 373.192 171 373.192C170.051 373.192 169.224 373.032 168.52 372.712C167.816 372.382 167.272 371.918 166.888 371.32C166.515 370.723 166.328 370.024 166.328 369.224V368.888C166.328 368.078 166.515 367.374 166.888 366.776C167.272 366.168 167.816 365.704 168.52 365.384C169.224 365.054 170.051 364.888 171 364.888C172.419 364.888 173.533 365.24 174.344 365.944C175.155 366.638 175.56 367.598 175.56 368.824V369.544ZM171 366.296C170.147 366.296 169.453 366.472 168.92 366.824C168.397 367.166 168.077 367.646 167.96 368.264H173.928C173.832 367.646 173.528 367.166 173.016 366.824C172.504 366.472 171.832 366.296 171 366.296Z" fill="#0F8A75"/>
<path d="M187.366 371.64V373H186.31C185.788 373 185.35 372.899 184.998 372.696C184.646 372.494 184.401 372.206 184.262 371.832C183.836 372.291 183.324 372.632 182.726 372.856C182.129 373.08 181.425 373.192 180.614 373.192C179.473 373.192 178.593 372.995 177.974 372.6C177.356 372.195 177.046 371.619 177.046 370.872C177.046 370.232 177.286 369.72 177.766 369.336C178.246 368.952 178.95 368.712 179.878 368.616L184.15 368.168C184.118 367.571 183.868 367.118 183.398 366.808C182.929 366.499 182.257 366.344 181.382 366.344C180.54 366.344 179.868 366.488 179.366 366.776C178.865 367.064 178.614 367.448 178.614 367.928V367.992H177.094V367.928C177.094 367.331 177.27 366.803 177.622 366.344C177.985 365.875 178.492 365.518 179.142 365.272C179.793 365.016 180.545 364.888 181.398 364.888C182.753 364.888 183.804 365.187 184.55 365.784C185.297 366.382 185.67 367.219 185.67 368.296V370.76C185.67 371.038 185.756 371.256 185.926 371.416C186.097 371.566 186.342 371.64 186.662 371.64H187.366ZM180.582 371.832C181.446 371.832 182.188 371.699 182.806 371.432C183.425 371.155 183.873 370.766 184.15 370.264V369.416L180.214 369.832C179.66 369.886 179.244 369.998 178.966 370.168C178.7 370.339 178.566 370.574 178.566 370.872C178.566 371.512 179.238 371.832 180.582 371.832Z" fill="#0F8A75"/>
<path d="M190.978 366.424V370.424C190.978 370.819 191.09 371.123 191.314 371.336C191.538 371.539 191.853 371.64 192.258 371.64H194.146V373H192.13C191.298 373 190.642 372.776 190.162 372.328C189.693 371.88 189.458 371.262 189.458 370.472V366.424H186.498V365.08H189.026C189.208 365.08 189.33 365.048 189.394 364.984C189.458 364.91 189.49 364.787 189.49 364.616V362.952H190.978V365.08H194.626V366.424H190.978Z" fill="#0F8A75"/>
<path d="M204.178 369.544H196.546C196.599 370.238 196.898 370.787 197.442 371.192C197.986 371.587 198.711 371.784 199.618 371.784C200.461 371.784 201.143 371.646 201.666 371.368C202.199 371.08 202.487 370.702 202.53 370.232H204.178C204.093 371.16 203.645 371.886 202.834 372.408C202.034 372.931 200.962 373.192 199.618 373.192C198.669 373.192 197.842 373.032 197.138 372.712C196.434 372.382 195.89 371.918 195.506 371.32C195.133 370.723 194.946 370.024 194.946 369.224V368.888C194.946 368.078 195.133 367.374 195.506 366.776C195.89 366.168 196.434 365.704 197.138 365.384C197.842 365.054 198.669 364.888 199.618 364.888C201.037 364.888 202.151 365.24 202.962 365.944C203.773 366.638 204.178 367.598 204.178 368.824V369.544ZM199.618 366.296C198.765 366.296 198.071 366.472 197.538 366.824C197.015 367.166 196.695 367.646 196.578 368.264H202.546C202.45 367.646 202.146 367.166 201.634 366.824C201.122 366.472 200.45 366.296 199.618 366.296Z" fill="#0F8A75"/>
<path d="M222.327 362.504V373H220.759L213.719 364.728V373H212.167V362.504H213.735L220.775 370.76V362.504H222.327Z" fill="#0F8A75"/>
<path d="M233.468 369.544H225.836C225.889 370.238 226.188 370.787 226.732 371.192C227.276 371.587 228.001 371.784 228.908 371.784C229.751 371.784 230.433 371.646 230.956 371.368C231.489 371.08 231.777 370.702 231.82 370.232H233.468C233.383 371.16 232.935 371.886 232.124 372.408C231.324 372.931 230.252 373.192 228.908 373.192C227.959 373.192 227.132 373.032 226.428 372.712C225.724 372.382 225.18 371.918 224.796 371.32C224.423 370.723 224.236 370.024 224.236 369.224V368.888C224.236 368.078 224.423 367.374 224.796 366.776C225.18 366.168 225.724 365.704 226.428 365.384C227.132 365.054 227.959 364.888 228.908 364.888C230.327 364.888 231.441 365.24 232.252 365.944C233.063 366.638 233.468 367.598 233.468 368.824V369.544ZM228.908 366.296C228.055 366.296 227.361 366.472 226.828 366.824C226.305 367.166 225.985 367.646 225.868 368.264H231.836C231.74 367.646 231.436 367.166 230.924 366.824C230.412 366.472 229.74 366.296 228.908 366.296Z" fill="#0F8A75"/>
<path d="M249.988 365.08V365.304L246.644 373H244.628L242.036 366.952L239.46 373H237.46L234.1 365.304V365.08H235.732L238.452 371.608L241.252 365.08H242.82L245.652 371.656L248.436 365.08H249.988Z" fill="#0F8A75"/>
<path d="M263.456 373.192C262.23 373.192 261.158 372.979 260.24 372.552C259.323 372.115 258.614 371.496 258.112 370.696C257.622 369.896 257.376 368.963 257.376 367.896V367.624C257.376 366.558 257.622 365.624 258.112 364.824C258.614 364.024 259.323 363.406 260.24 362.968C261.158 362.531 262.23 362.312 263.456 362.312C264.566 362.312 265.563 362.499 266.448 362.872C267.344 363.246 268.043 363.763 268.544 364.424C269.056 365.075 269.312 365.806 269.312 366.616V366.76H267.696V366.616C267.696 366.083 267.515 365.603 267.152 365.176C266.79 364.75 266.283 364.414 265.632 364.168C264.992 363.923 264.267 363.8 263.456 363.8C262.027 363.8 260.923 364.131 260.144 364.792C259.376 365.454 258.992 366.392 258.992 367.608V367.912C258.992 369.128 259.376 370.067 260.144 370.728C260.923 371.379 262.027 371.704 263.456 371.704C264.278 371.704 265.008 371.587 265.648 371.352C266.299 371.107 266.8 370.771 267.152 370.344C267.515 369.918 267.696 369.438 267.696 368.904V368.744H269.312V368.904C269.312 369.715 269.056 370.446 268.544 371.096C268.043 371.747 267.344 372.259 266.448 372.632C265.563 373.006 264.566 373.192 263.456 373.192Z" fill="#0F8A75"/>
<path d="M275.521 373.192C274.55 373.192 273.707 373.032 272.993 372.712C272.278 372.382 271.729 371.918 271.345 371.32C270.961 370.712 270.769 370.003 270.769 369.192V368.92C270.769 368.099 270.961 367.384 271.345 366.776C271.729 366.168 272.278 365.704 272.993 365.384C273.707 365.054 274.55 364.888 275.521 364.888C276.481 364.888 277.313 365.054 278.017 365.384C278.731 365.704 279.275 366.168 279.649 366.776C280.033 367.384 280.225 368.099 280.225 368.92V369.192C280.225 370.003 280.033 370.712 279.649 371.32C279.275 371.918 278.731 372.382 278.017 372.712C277.313 373.032 276.481 373.192 275.521 373.192ZM275.505 371.784C276.486 371.784 277.254 371.555 277.809 371.096C278.363 370.638 278.641 370.003 278.641 369.192V368.92C278.641 368.099 278.363 367.459 277.809 367C277.254 366.531 276.486 366.296 275.505 366.296C274.502 366.296 273.723 366.526 273.169 366.984C272.625 367.443 272.353 368.088 272.353 368.92V369.192C272.353 370.003 272.63 370.638 273.185 371.096C273.75 371.555 274.523 371.784 275.505 371.784Z" fill="#0F8A75"/>
<path d="M286.57 364.888C287.956 364.888 289.002 365.235 289.706 365.928C290.42 366.611 290.778 367.619 290.778 368.952V373H289.258V368.952C289.258 368.088 289.012 367.432 288.522 366.984C288.042 366.526 287.343 366.296 286.426 366.296C285.796 366.296 285.22 366.44 284.698 366.728C284.186 367.016 283.802 367.4 283.546 367.88V373H282.01V365.08H283.434L283.498 366.104C284.287 365.315 285.311 364.91 286.57 364.888Z" fill="#0F8A75"/>
<path d="M295.888 366.424V370.424C295.888 370.819 296 371.123 296.224 371.336C296.448 371.539 296.763 371.64 297.168 371.64H299.056V373H297.04C296.208 373 295.552 372.776 295.072 372.328C294.602 371.88 294.368 371.262 294.368 370.472V366.424H291.408V365.08H293.936C294.117 365.08 294.24 365.048 294.304 364.984C294.368 364.91 294.4 364.787 294.4 364.616V362.952H295.888V365.08H299.536V366.424H295.888Z" fill="#0F8A75"/>
<path d="M310.776 371.64V373H309.72C309.198 373 308.76 372.899 308.408 372.696C308.056 372.494 307.811 372.206 307.672 371.832C307.246 372.291 306.734 372.632 306.136 372.856C305.539 373.08 304.835 373.192 304.024 373.192C302.883 373.192 302.003 372.995 301.384 372.6C300.766 372.195 300.456 371.619 300.456 370.872C300.456 370.232 300.696 369.72 301.176 369.336C301.656 368.952 302.36 368.712 303.288 368.616L307.56 368.168C307.528 367.571 307.278 367.118 306.808 366.808C306.339 366.499 305.667 366.344 304.792 366.344C303.95 366.344 303.278 366.488 302.776 366.776C302.275 367.064 302.024 367.448 302.024 367.928V367.992H300.504V367.928C300.504 367.331 300.68 366.803 301.032 366.344C301.395 365.875 301.902 365.518 302.552 365.272C303.203 365.016 303.955 364.888 304.808 364.888C306.163 364.888 307.214 365.187 307.96 365.784C308.707 366.382 309.08 367.219 309.08 368.296V370.76C309.08 371.038 309.166 371.256 309.336 371.416C309.507 371.566 309.752 371.64 310.072 371.64H310.776ZM303.992 371.832C304.856 371.832 305.598 371.699 306.216 371.432C306.835 371.155 307.283 370.766 307.56 370.264V369.416L303.624 369.832C303.07 369.886 302.654 369.998 302.376 370.168C302.11 370.339 301.976 370.574 301.976 370.872C301.976 371.512 302.648 371.832 303.992 371.832Z" fill="#0F8A75"/>
<path d="M316.005 373.192C315.056 373.192 314.224 373.032 313.509 372.712C312.795 372.382 312.245 371.918 311.861 371.32C311.477 370.712 311.285 370.008 311.285 369.208V368.92C311.285 368.099 311.477 367.384 311.861 366.776C312.245 366.168 312.789 365.704 313.493 365.384C314.208 365.054 315.045 364.888 316.005 364.888C316.869 364.888 317.648 365.038 318.341 365.336C319.035 365.624 319.573 366.03 319.957 366.552C320.352 367.064 320.549 367.646 320.549 368.296V368.36H318.965V368.296C318.965 367.912 318.837 367.571 318.581 367.272C318.336 366.963 317.984 366.723 317.525 366.552C317.077 366.382 316.571 366.296 316.005 366.296C315.024 366.296 314.256 366.531 313.701 367C313.147 367.459 312.869 368.104 312.869 368.936V369.192C312.869 370.003 313.147 370.638 313.701 371.096C314.256 371.555 315.024 371.784 316.005 371.784C316.581 371.784 317.093 371.699 317.541 371.528C317.989 371.358 318.336 371.123 318.581 370.824C318.837 370.526 318.965 370.184 318.965 369.8V369.736H320.549V369.8C320.549 370.462 320.357 371.048 319.973 371.56C319.589 372.072 319.051 372.472 318.357 372.76C317.675 373.048 316.891 373.192 316.005 373.192Z" fill="#0F8A75"/>
<path d="M325.115 366.424V370.424C325.115 370.819 325.227 371.123 325.451 371.336C325.675 371.539 325.99 371.64 326.395 371.64H328.283V373H326.267C325.435 373 324.779 372.776 324.299 372.328C323.83 371.88 323.595 371.262 323.595 370.472V366.424H320.635V365.08H323.163C323.345 365.08 323.467 365.048 323.531 364.984C323.595 364.91 323.627 364.787 323.627 364.616V362.952H325.115V365.08H328.763V366.424H325.115Z" fill="#0F8A75"/>
<path d="M27.3763 393.64V395H26.3203C25.7977 395 25.3603 394.899 25.0083 394.696C24.6563 394.494 24.411 394.206 24.2723 393.832C23.8457 394.291 23.3337 394.632 22.7363 394.856C22.139 395.08 21.435 395.192 20.6243 395.192C19.483 395.192 18.603 394.995 17.9843 394.6C17.3657 394.195 17.0563 393.619 17.0563 392.872C17.0563 392.232 17.2963 391.72 17.7763 391.336C18.2563 390.952 18.9603 390.712 19.8883 390.616L24.1603 390.168C24.1283 389.571 23.8777 389.118 23.4083 388.808C22.939 388.499 22.267 388.344 21.3923 388.344C20.5497 388.344 19.8777 388.488 19.3763 388.776C18.875 389.064 18.6243 389.448 18.6243 389.928V389.992H17.1043V389.928C17.1043 389.331 17.2803 388.803 17.6323 388.344C17.995 387.875 18.5017 387.518 19.1523 387.272C19.803 387.016 20.555 386.888 21.4083 386.888C22.763 386.888 23.8137 387.187 24.5603 387.784C25.307 388.382 25.6803 389.219 25.6803 390.296V392.76C25.6803 393.038 25.7657 393.256 25.9363 393.416C26.107 393.566 26.3523 393.64 26.6723 393.64H27.3763ZM20.5923 393.832C21.4563 393.832 22.1977 393.699 22.8163 393.432C23.435 393.155 23.883 392.766 24.1603 392.264V391.416L20.2243 391.832C19.6697 391.886 19.2537 391.998 18.9763 392.168C18.7097 392.339 18.5763 392.574 18.5763 392.872C18.5763 393.512 19.2483 393.832 20.5923 393.832Z" fill="#171A1B"/>
<path d="M33.0535 386.888C34.4401 386.888 35.4855 387.235 36.1895 387.928C36.9041 388.611 37.2615 389.619 37.2615 390.952V395H35.7415V390.952C35.7415 390.088 35.4961 389.432 35.0055 388.984C34.5255 388.526 33.8268 388.296 32.9095 388.296C32.2801 388.296 31.7041 388.44 31.1815 388.728C30.6695 389.016 30.2855 389.4 30.0295 389.88V395H28.4935V387.08H29.9175L29.9815 388.104C30.7708 387.315 31.7948 386.91 33.0535 386.888Z" fill="#171A1B"/>
<path d="M48.1885 383.864V395H46.7645L46.7165 394.088C45.8951 394.824 44.8391 395.192 43.5485 395.192C42.6098 395.192 41.7938 395.032 41.1005 394.712C40.4071 394.382 39.8738 393.912 39.5005 393.304C39.1271 392.696 38.9405 391.982 38.9405 391.16V390.904C38.9405 390.083 39.1271 389.374 39.5005 388.776C39.8738 388.168 40.4071 387.704 41.1005 387.384C41.7938 387.054 42.6098 386.888 43.5485 386.888C44.1565 386.888 44.7218 386.979 45.2445 387.16C45.7778 387.342 46.2471 387.603 46.6525 387.944V383.864H48.1885ZM43.6925 393.784C44.3218 393.784 44.8978 393.672 45.4205 393.448C45.9431 393.214 46.3538 392.899 46.6525 392.504V389.56C46.3538 389.176 45.9431 388.872 45.4205 388.648C44.8978 388.414 44.3218 388.296 43.6925 388.296C42.7005 388.296 41.9218 388.526 41.3565 388.984C40.8018 389.443 40.5245 390.083 40.5245 390.904V391.16C40.5245 391.971 40.8071 392.611 41.3725 393.08C41.9378 393.55 42.7111 393.784 43.6925 393.784Z" fill="#171A1B"/>
<path d="M62.4181 395.192C61.1914 395.192 60.1194 394.979 59.2021 394.552C58.2848 394.115 57.5754 393.496 57.0741 392.696C56.5834 391.896 56.3381 390.963 56.3381 389.896V389.624C56.3381 388.558 56.5834 387.624 57.0741 386.824C57.5754 386.024 58.2848 385.406 59.2021 384.968C60.1194 384.531 61.1914 384.312 62.4181 384.312C63.5274 384.312 64.5247 384.499 65.4101 384.872C66.3061 385.246 67.0047 385.763 67.5061 386.424C68.0181 387.075 68.2741 387.806 68.2741 388.616V388.76H66.6581V388.616C66.6581 388.083 66.4767 387.603 66.1141 387.176C65.7514 386.75 65.2447 386.414 64.5941 386.168C63.9541 385.923 63.2287 385.8 62.4181 385.8C60.9888 385.8 59.8848 386.131 59.1061 386.792C58.3381 387.454 57.9541 388.392 57.9541 389.608V389.912C57.9541 391.128 58.3381 392.067 59.1061 392.728C59.8848 393.379 60.9888 393.704 62.4181 393.704C63.2394 393.704 63.9701 393.587 64.6101 393.352C65.2607 393.107 65.7621 392.771 66.1141 392.344C66.4767 391.918 66.6581 391.438 66.6581 390.904V390.744H68.2741V390.904C68.2741 391.715 68.0181 392.446 67.5061 393.096C67.0047 393.747 66.3061 394.259 65.4101 394.632C64.5247 395.006 63.5274 395.192 62.4181 395.192Z" fill="#0F8A75"/>
<path d="M76.3545 387.08V388.424H74.5945C74.0185 388.424 73.5065 388.52 73.0585 388.712C72.6211 388.904 72.2798 389.176 72.0345 389.528V395H70.4985V387.08H71.9385L71.9865 387.992C72.3385 387.694 72.7545 387.47 73.2345 387.32C73.7145 387.16 74.2371 387.08 74.8025 387.08H76.3545Z" fill="#0F8A75"/>
<path d="M85.9081 391.544H78.2761C78.3294 392.238 78.6281 392.787 79.1721 393.192C79.7161 393.587 80.4414 393.784 81.3481 393.784C82.1908 393.784 82.8734 393.646 83.3961 393.368C83.9294 393.08 84.2174 392.702 84.2601 392.232H85.9081C85.8228 393.16 85.3748 393.886 84.5641 394.408C83.7641 394.931 82.6921 395.192 81.3481 395.192C80.3988 395.192 79.5721 395.032 78.8681 394.712C78.1641 394.382 77.6201 393.918 77.2361 393.32C76.8628 392.723 76.6761 392.024 76.6761 391.224V390.888C76.6761 390.078 76.8628 389.374 77.2361 388.776C77.6201 388.168 78.1641 387.704 78.8681 387.384C79.5721 387.054 80.3988 386.888 81.3481 386.888C82.7668 386.888 83.8814 387.24 84.6921 387.944C85.5028 388.638 85.9081 389.598 85.9081 390.824V391.544ZM81.3481 388.296C80.4948 388.296 79.8014 388.472 79.2681 388.824C78.7454 389.166 78.4254 389.646 78.3081 390.264H84.2761C84.1801 389.646 83.8761 389.166 83.3641 388.824C82.8521 388.472 82.1801 388.296 81.3481 388.296Z" fill="#0F8A75"/>
<path d="M97.7145 393.64V395H96.6585C96.1358 395 95.6985 394.899 95.3465 394.696C94.9945 394.494 94.7491 394.206 94.6105 393.832C94.1838 394.291 93.6718 394.632 93.0745 394.856C92.4771 395.08 91.7731 395.192 90.9625 395.192C89.8211 395.192 88.9411 394.995 88.3225 394.6C87.7038 394.195 87.3945 393.619 87.3945 392.872C87.3945 392.232 87.6345 391.72 88.1145 391.336C88.5945 390.952 89.2985 390.712 90.2265 390.616L94.4985 390.168C94.4665 389.571 94.2158 389.118 93.7465 388.808C93.2771 388.499 92.6051 388.344 91.7305 388.344C90.8878 388.344 90.2158 388.488 89.7145 388.776C89.2131 389.064 88.9625 389.448 88.9625 389.928V389.992H87.4425V389.928C87.4425 389.331 87.6185 388.803 87.9705 388.344C88.3331 387.875 88.8398 387.518 89.4905 387.272C90.1411 387.016 90.8931 386.888 91.7465 386.888C93.1011 386.888 94.1518 387.187 94.8985 387.784C95.6451 388.382 96.0185 389.219 96.0185 390.296V392.76C96.0185 393.038 96.1038 393.256 96.2745 393.416C96.4451 393.566 96.6905 393.64 97.0105 393.64H97.7145ZM90.9305 393.832C91.7945 393.832 92.5358 393.699 93.1545 393.432C93.7731 393.155 94.2211 392.766 94.4985 392.264V391.416L90.5625 391.832C90.0078 391.886 89.5918 391.998 89.3145 392.168C89.0478 392.339 88.9145 392.574 88.9145 392.872C88.9145 393.512 89.5865 393.832 90.9305 393.832Z" fill="#0F8A75"/>
<path d="M101.327 388.424V392.424C101.327 392.819 101.439 393.123 101.663 393.336C101.887 393.539 102.201 393.64 102.607 393.64H104.495V395H102.479C101.647 395 100.991 394.776 100.511 394.328C100.041 393.88 99.8066 393.262 99.8066 392.472V388.424H96.8466V387.08H99.3746C99.5559 387.08 99.6786 387.048 99.7426 386.984C99.8066 386.91 99.8386 386.787 99.8386 386.616V384.952H101.327V387.08H104.975V388.424H101.327Z" fill="#0F8A75"/>
<path d="M114.526 391.544H106.894C106.948 392.238 107.246 392.787 107.79 393.192C108.334 393.587 109.06 393.784 109.966 393.784C110.809 393.784 111.492 393.646 112.014 393.368C112.548 393.08 112.836 392.702 112.878 392.232H114.526C114.441 393.16 113.993 393.886 113.182 394.408C112.382 394.931 111.31 395.192 109.966 395.192C109.017 395.192 108.19 395.032 107.486 394.712C106.782 394.382 106.238 393.918 105.854 393.32C105.481 392.723 105.294 392.024 105.294 391.224V390.888C105.294 390.078 105.481 389.374 105.854 388.776C106.238 388.168 106.782 387.704 107.486 387.384C108.19 387.054 109.017 386.888 109.966 386.888C111.385 386.888 112.5 387.24 113.31 387.944C114.121 388.638 114.526 389.598 114.526 390.824V391.544ZM109.966 388.296C109.113 388.296 108.42 388.472 107.886 388.824C107.364 389.166 107.044 389.646 106.926 390.264H112.894C112.798 389.646 112.494 389.166 111.982 388.824C111.47 388.472 110.798 388.296 109.966 388.296Z" fill="#0F8A75"/>
<path d="M128.067 395.192C126.862 395.192 125.806 394.974 124.899 394.536C123.992 394.099 123.294 393.48 122.803 392.68C122.312 391.88 122.067 390.942 122.067 389.864V389.656C122.067 388.579 122.312 387.64 122.803 386.84C123.294 386.03 123.992 385.406 124.899 384.968C125.806 384.531 126.862 384.312 128.067 384.312C129.272 384.312 130.323 384.531 131.219 384.968C132.126 385.406 132.824 386.03 133.315 386.84C133.806 387.64 134.051 388.579 134.051 389.656V389.864C134.051 390.942 133.806 391.88 133.315 392.68C132.824 393.48 132.126 394.099 131.219 394.536C130.323 394.974 129.272 395.192 128.067 395.192ZM128.067 393.704C129.443 393.704 130.515 393.368 131.283 392.696C132.051 392.024 132.435 391.091 132.435 389.896V389.64C132.435 388.435 132.051 387.496 131.283 386.824C130.515 386.142 129.443 385.8 128.067 385.8C126.691 385.8 125.613 386.142 124.835 386.824C124.067 387.496 123.683 388.435 123.683 389.64V389.896C123.683 391.091 124.067 392.024 124.835 392.696C125.613 393.368 126.691 393.704 128.067 393.704Z" fill="#0F8A75"/>
<path d="M140.642 386.888C141.591 386.888 142.423 387.054 143.138 387.384C143.853 387.715 144.402 388.184 144.786 388.792C145.17 389.39 145.362 390.094 145.362 390.904V391.16C145.362 391.971 145.17 392.68 144.786 393.288C144.402 393.896 143.853 394.366 143.138 394.696C142.423 395.027 141.591 395.192 140.642 395.192C140.055 395.192 139.506 395.102 138.994 394.92C138.482 394.739 138.034 394.478 137.65 394.136V397.72H136.114V387.08H137.538L137.602 387.992C137.997 387.64 138.455 387.368 138.978 387.176C139.501 386.984 140.055 386.888 140.642 386.888ZM143.778 390.904C143.778 390.094 143.495 389.459 142.93 389C142.375 388.531 141.607 388.296 140.626 388.296C139.997 388.296 139.415 388.408 138.882 388.632C138.359 388.856 137.949 389.16 137.65 389.544V392.52C137.949 392.904 138.359 393.214 138.882 393.448C139.415 393.672 139.997 393.784 140.626 393.784C141.607 393.784 142.375 393.55 142.93 393.08C143.495 392.611 143.778 391.971 143.778 391.16V390.904Z" fill="#0F8A75"/>
<path d="M151.681 386.888C152.631 386.888 153.463 387.054 154.177 387.384C154.892 387.715 155.441 388.184 155.825 388.792C156.209 389.39 156.401 390.094 156.401 390.904V391.16C156.401 391.971 156.209 392.68 155.825 393.288C155.441 393.896 154.892 394.366 154.177 394.696C153.463 395.027 152.631 395.192 151.681 395.192C151.095 395.192 150.545 395.102 150.033 394.92C149.521 394.739 149.073 394.478 148.689 394.136V397.72H147.153V387.08H148.577L148.641 387.992C149.036 387.64 149.495 387.368 150.017 387.176C150.54 386.984 151.095 386.888 151.681 386.888ZM154.817 390.904C154.817 390.094 154.535 389.459 153.969 389C153.415 388.531 152.647 388.296 151.665 388.296C151.036 388.296 150.455 388.408 149.921 388.632C149.399 388.856 148.988 389.16 148.689 389.544V392.52C148.988 392.904 149.399 393.214 149.921 393.448C150.455 393.672 151.036 393.784 151.665 393.784C152.647 393.784 153.415 393.55 153.969 393.08C154.535 392.611 154.817 391.971 154.817 391.16V390.904Z" fill="#0F8A75"/>
<path d="M162.337 395.192C161.366 395.192 160.524 395.032 159.809 394.712C159.094 394.382 158.545 393.918 158.161 393.32C157.777 392.712 157.585 392.003 157.585 391.192V390.92C157.585 390.099 157.777 389.384 158.161 388.776C158.545 388.168 159.094 387.704 159.809 387.384C160.524 387.054 161.366 386.888 162.337 386.888C163.297 386.888 164.129 387.054 164.833 387.384C165.547 387.704 166.091 388.168 166.465 388.776C166.849 389.384 167.041 390.099 167.041 390.92V391.192C167.041 392.003 166.849 392.712 166.465 393.32C166.091 393.918 165.547 394.382 164.833 394.712C164.129 395.032 163.297 395.192 162.337 395.192ZM162.321 393.784C163.302 393.784 164.07 393.555 164.625 393.096C165.18 392.638 165.457 392.003 165.457 391.192V390.92C165.457 390.099 165.18 389.459 164.625 389C164.07 388.531 163.302 388.296 162.321 388.296C161.318 388.296 160.54 388.526 159.985 388.984C159.441 389.443 159.169 390.088 159.169 390.92V391.192C159.169 392.003 159.446 392.638 160.001 393.096C160.566 393.555 161.339 393.784 162.321 393.784Z" fill="#0F8A75"/>
<path d="M174.842 387.08V388.424H173.082C172.506 388.424 171.994 388.52 171.546 388.712C171.109 388.904 170.767 389.176 170.522 389.528V395H168.986V387.08H170.426L170.474 387.992C170.826 387.694 171.242 387.47 171.722 387.32C172.202 387.16 172.725 387.08 173.29 387.08H174.842Z" fill="#0F8A75"/>
<path d="M179.188 388.424V392.424C179.188 392.819 179.3 393.123 179.524 393.336C179.748 393.539 180.063 393.64 180.468 393.64H182.356V395H180.34C179.508 395 178.852 394.776 178.372 394.328C177.903 393.88 177.668 393.262 177.668 392.472V388.424H174.708V387.08H177.236C177.418 387.08 177.54 387.048 177.604 386.984C177.668 386.91 177.7 386.787 177.7 386.616V384.952H179.188V387.08H182.836V388.424H179.188Z" fill="#0F8A75"/>
<path d="M192.717 387.08V395H191.293L191.229 393.976C190.44 394.766 189.416 395.171 188.157 395.192C186.77 395.192 185.72 394.851 185.005 394.168C184.301 393.475 183.949 392.462 183.949 391.128V387.08H185.469V391.128C185.469 391.982 185.709 392.638 186.189 393.096C186.68 393.555 187.384 393.784 188.301 393.784C188.93 393.784 189.501 393.64 190.013 393.352C190.536 393.064 190.925 392.68 191.181 392.2V387.08H192.717Z" fill="#0F8A75"/>
<path d="M199.676 386.888C201.063 386.888 202.108 387.235 202.812 387.928C203.527 388.611 203.884 389.619 203.884 390.952V395H202.364V390.952C202.364 390.088 202.119 389.432 201.628 388.984C201.148 388.526 200.449 388.296 199.532 388.296C198.903 388.296 198.327 388.44 197.804 388.728C197.292 389.016 196.908 389.4 196.652 389.88V395H195.116V387.08H196.54L196.604 388.104C197.393 387.315 198.417 386.91 199.676 386.888Z" fill="#0F8A75"/>
<path d="M207.867 387.08V395H206.331V387.08H207.867ZM207.099 385.816C206.79 385.816 206.539 385.726 206.347 385.544C206.155 385.352 206.059 385.107 206.059 384.808C206.059 384.52 206.155 384.286 206.347 384.104C206.539 383.923 206.79 383.832 207.099 383.832C207.408 383.832 207.659 383.923 207.851 384.104C208.043 384.286 208.139 384.52 208.139 384.808C208.139 385.107 208.043 385.352 207.851 385.544C207.659 385.726 207.408 385.816 207.099 385.816Z" fill="#0F8A75"/>
<path d="M213.549 388.424V392.424C213.549 392.819 213.661 393.123 213.885 393.336C214.109 393.539 214.424 393.64 214.829 393.64H216.717V395H214.701C213.869 395 213.213 394.776 212.733 394.328C212.264 393.88 212.029 393.262 212.029 392.472V388.424H209.069V387.08H211.597C211.778 387.08 211.901 387.048 211.965 386.984C212.029 386.91 212.061 386.787 212.061 386.616V384.952H213.549V387.08H217.197V388.424H213.549Z" fill="#0F8A75"/>
<path d="M227.622 387.08V387.304L223.11 395.88C222.758 396.542 222.347 397.011 221.878 397.288C221.419 397.576 220.79 397.72 219.99 397.72H218.39V396.36H219.99C220.438 396.36 220.774 396.291 220.998 396.152C221.222 396.024 221.435 395.763 221.638 395.368L221.782 395.112L217.654 387.304V387.08H219.286L222.646 393.608L225.99 387.08H227.622Z" fill="#0F8A75"/>
<path d="M229.148 395.192C228.86 395.192 228.625 395.102 228.444 394.92C228.263 394.739 228.172 394.51 228.172 394.232C228.172 393.955 228.263 393.726 228.444 393.544C228.625 393.363 228.86 393.272 229.148 393.272C229.436 393.272 229.671 393.363 229.852 393.544C230.033 393.726 230.124 393.955 230.124 394.232C230.124 394.51 230.033 394.739 229.852 394.92C229.671 395.102 229.436 395.192 229.148 395.192Z" fill="#0F8A75"/>
<g filter="url(#filter1_dddd_4418_1547)">
<circle cx="246" cy="188" r="25" fill="#0F8A75"/>
</g>
<rect x="243" y="174" width="6" height="28" rx="2" fill="white"/>
<rect x="260" y="185" width="6" height="28" rx="2" transform="rotate(90 260 185)" fill="white"/>
</g>
<rect x="0.500019" y="438.5" width="438" height="359" rx="15.5" transform="rotate(-90 0.500019 438.5)" stroke="#0F8A75"/>
<defs>
<filter id="filter0_dddd_4418_1547" x="64" y="49" width="232" height="309" filterUnits="userSpaceOnUse" color-interpolation-filters="sRGB">
<feFlood flood-opacity="0" result="BackgroundImageFix"/>
<feColorMatrix in="SourceAlpha" type="matrix" values="0 0 0 0 0 0 0 0 0 0 0 0 0 0 0 0 0 0 127 0" result="hardAlpha"/>
<feOffset dy="7"/>
<feGaussianBlur stdDeviation="8"/>
<feColorMatrix type="matrix" values="0 0 0 0 0.0235294 0 0 0 0 0.278431 0 0 0 0 0.156863 0 0 0 0.1 0"/>
<feBlend mode="normal" in2="BackgroundImageFix" result="effect1_dropShadow_4418_1547"/>
<feColorMatrix in="SourceAlpha" type="matrix" values="0 0 0 0 0 0 0 0 0 0 0 0 0 0 0 0 0 0 127 0" result="hardAlpha"/>
<feOffset dy="29"/>
<feGaussianBlur stdDeviation="14.5"/>
<feColorMatrix type="matrix" values="0 0 0 0 0.0235294 0 0 0 0 0.278431 0 0 0 0 0.156863 0 0 0 0.09 0"/>
<feBlend mode="normal" in2="effect1_dropShadow_4418_1547" result="effect2_dropShadow_4418_1547"/>
<feColorMatrix in="SourceAlpha" type="matrix" values="0 0 0 0 0 0 0 0 0 0 0 0 0 0 0 0 0 0 127 0" result="hardAlpha"/>
<feOffset dy="64"/>
<feGaussianBlur stdDeviation="19.5"/>
<feColorMatrix type="matrix" values="0 0 0 0 0.0235294 0 0 0 0 0.278431 0 0 0 0 0.156863 0 0 0 0.05 0"/>
<feBlend mode="normal" in2="effect2_dropShadow_4418_1547" result="effect3_dropShadow_4418_1547"/>
<feColorMatrix in="SourceAlpha" type="matrix" values="0 0 0 0 0 0 0 0 0 0 0 0 0 0 0 0 0 0 127 0" result="hardAlpha"/>
<feOffset dy="114"/>
<feGaussianBlur stdDeviation="23"/>
<feColorMatrix type="matrix" values="0 0 0 0 0.0235294 0 0 0 0 0.278431 0 0 0 0 0.156863 0 0 0 0.01 0"/>
<feBlend mode="normal" in2="effect3_dropShadow_4418_1547" result="effect4_dropShadow_4418_1547"/>
<feBlend mode="normal" in="SourceGraphic" in2="effect4_dropShadow_4418_1547" result="shape"/>
</filter>
<filter id="filter1_dddd_4418_1547" x="175" y="154" width="142" height="219" filterUnits="userSpaceOnUse" color-interpolation-filters="sRGB">
<feFlood flood-opacity="0" result="BackgroundImageFix"/>
<feColorMatrix in="SourceAlpha" type="matrix" values="0 0 0 0 0 0 0 0 0 0 0 0 0 0 0 0 0 0 127 0" result="hardAlpha"/>
<feOffset dy="7"/>
<feGaussianBlur stdDeviation="8"/>
<feColorMatrix type="matrix" values="0 0 0 0 0.0235294 0 0 0 0 0.278431 0 0 0 0 0.156863 0 0 0 0.1 0"/>
<feBlend mode="normal" in2="BackgroundImageFix" result="effect1_dropShadow_4418_1547"/>
<feColorMatrix in="SourceAlpha" type="matrix" values="0 0 0 0 0 0 0 0 0 0 0 0 0 0 0 0 0 0 127 0" result="hardAlpha"/>
<feOffset dy="29"/>
<feGaussianBlur stdDeviation="14.5"/>
<feColorMatrix type="matrix" values="0 0 0 0 0.0235294 0 0 0 0 0.278431 0 0 0 0 0.156863 0 0 0 0.09 0"/>
<feBlend mode="normal" in2="effect1_dropShadow_4418_1547" result="effect2_dropShadow_4418_1547"/>
<feColorMatrix in="SourceAlpha" type="matrix" values="0 0 0 0 0 0 0 0 0 0 0 0 0 0 0 0 0 0 127 0" result="hardAlpha"/>
<feOffset dy="64"/>
<feGaussianBlur stdDeviation="19.5"/>
<feColorMatrix type="matrix" values="0 0 0 0 0.0235294 0 0 0 0 0.278431 0 0 0 0 0.156863 0 0 0 0.05 0"/>
<feBlend mode="normal" in2="effect2_dropShadow_4418_1547" result="effect3_dropShadow_4418_1547"/>
<feColorMatrix in="SourceAlpha" type="matrix" values="0 0 0 0 0 0 0 0 0 0 0 0 0 0 0 0 0 0 127 0" result="hardAlpha"/>
<feOffset dy="114"/>
<feGaussianBlur stdDeviation="23"/>
<feColorMatrix type="matrix" values="0 0 0 0 0.0235294 0 0 0 0 0.278431 0 0 0 0 0.156863 0 0 0 0.01 0"/>
<feBlend mode="normal" in2="effect3_dropShadow_4418_1547" result="effect4_dropShadow_4418_1547"/>
<feBlend mode="normal" in="SourceGraphic" in2="effect4_dropShadow_4418_1547" result="shape"/>
</filter>
<linearGradient id="paint0_linear_4418_1547" x1="52.5" y1="232.5" x2="133.901" y2="-64.7843" gradientUnits="userSpaceOnUse">
<stop stop-color="#F8FBFB"/>
<stop offset="1" stop-color="#D3FDEF"/>
</linearGradient>
<linearGradient id="paint1_linear_4418_1547" x1="135.984" y1="83.6388" x2="146.071" y2="83.6388" gradientUnits="userSpaceOnUse">
<stop stop-color="#DAE3FE"/>
<stop offset="1" stop-color="#E9EFFD"/>
</linearGradient>
<linearGradient id="paint2_linear_4418_1547" x1="131.279" y1="95.081" x2="150.725" y2="95.081" gradientUnits="userSpaceOnUse">
<stop stop-color="#DAE3FE"/>
<stop offset="1" stop-color="#E9EFFD"/>
</linearGradient>
<clipPath id="clip0_4418_1547">
<rect x="1.91893e-05" y="439" width="439" height="360" rx="16" transform="rotate(-90 1.91893e-05 439)" fill="white"/>
</clipPath>
</defs>
</svg>
